<?xml version="1.0" encoding="utf-8"?>
<!-- Generator: Adobe Illustrator 19.0.0, SVG Export Plug-In . SVG Version: 6.00 Build 0)  -->
<svg version="1.1" xmlns="http://www.w3.org/2000/svg" xmlns:xlink="http://www.w3.org/1999/xlink" x="0px" y="0px"
	 viewBox="0 0 400 300.7" style="enable-background:new 0 0 400 300.7;" xml:space="preserve">
<style type="text/css">
	.st0{clip-path:url(#SVGID_2_);}
	.st1{clip-path:url(#SVGID_4_);fill:#757575;}
	.st2{fill:#EFEFEF;}
	.st3{fill:#A5A5A5;}
	.st4{fill:#E5E5E5;}
	.st5{fill:#F4F4F4;}
	.st6{opacity:0.5;fill:#FFFFFF;}
	.st7{opacity:0.5;fill:#A5A5A5;}
	.st8{fill:#0060A2;}
</style>
<g id="Guides_For_Artboard_1_">
</g>
<g id="Guides_For_Artboard">
</g>
<g id="FONDO">
</g>
<g id="LOGO">
</g>
<g id="Layer_2">
	<g>
		<defs>
			<path id="SVGID_1_" d="M-961.1,2604.6c-0.5,0-0.9,0.4-0.9,0.9c0,0.5,0.4,0.9,0.9,0.9c0.5,0,0.9-0.4,0.9-0.9
				C-960.2,2605-960.7,2604.6-961.1,2604.6 M-962.5,2608.2c-2,0-3.6-1.6-3.6-3.6c0-2,1.6-3.6,3.6-3.6s3.6,1.6,3.6,3.6
				C-958.9,2606.6-960.5,2608.2-962.5,2608.2 M-962.5,2600.1c-2.5,0-4.5,2-4.5,4.5s2,4.5,4.5,4.5c2.5,0,4.5-2,4.5-4.5
				S-960,2600.1-962.5,2600.1 M-961.6,2603.3c0-0.5-0.4-0.9-0.9-0.9c-0.5,0-0.9,0.4-0.9,0.9c0,0.5,0.4,0.9,0.9,0.9
				C-962,2604.2-961.6,2603.8-961.6,2603.3 M-963.8,2604.6c-0.5,0-0.9,0.4-0.9,0.9s0.4,0.9,0.9,0.9s0.9-0.4,0.9-0.9
				C-962.9,2605-963.4,2604.6-963.8,2604.6"/>
		</defs>
		<clipPath id="SVGID_2_">
			<use xlink:href="#SVGID_1_"  style="overflow:visible;"/>
		</clipPath>
		<g class="st0">
			<defs>
				<rect id="SVGID_3_" x="-1138" y="-560.9" width="1113" height="3720"/>
			</defs>
			<clipPath id="SVGID_4_">
				<use xlink:href="#SVGID_3_"  style="overflow:visible;"/>
			</clipPath>
			<rect x="-972" y="2595.1" class="st1" width="19" height="19"/>
		</g>
	</g>
	<rect x="0" y="0.3" class="st2" width="400" height="300"/>
	<path class="st3" d="M284.1,182.4c0,5.6-4.5,10.1-10.1,10.1H156c-5.6,0-10.1-4.5-10.1-10.1v-80.1c0-5.6,4.5-10.1,10.1-10.1H274
		c5.6,0,10.1,4.5,10.1,10.1V182.4z"/>
	<path class="st4" d="M273.4,182.4c0,5.6-4.5,10.1-10.1,10.1H145.3c-5.6,0-10.1-4.5-10.1-10.1v-80.1c0-5.6,4.5-10.1,10.1-10.1h117.9
		c5.6,0,10.1,4.5,10.1,10.1V182.4z"/>
	<rect x="218" y="181.3" class="st3" width="66" height="12.2"/>
	<rect x="76.4" y="181.3" class="st4" width="141.7" height="12.2"/>
	<rect x="145.9" y="106.8" class="st5" width="116.5" height="57.2"/>
	<rect x="165" y="106.8" class="st6" width="75.6" height="57.2"/>
	<path class="st7" d="M308.9,187.4c0-3.4-2.7-6.1-6.1-6.1h-45.7c-3.4,0-6.1,2.7-6.1,6.1l0,0c0,3.4,2.7,6.1,6.1,6.1h45.7
		C306.2,193.5,308.9,190.7,308.9,187.4L308.9,187.4z"/>
	<g>
		<path class="st8" d="M208.7,123.1v13.7h5.4v-13.7H208.7z M208.7,144.9h5.4v-5.4h-5.4V144.9z"/>
		<polygon class="st8" points="190,123.1 190,128.6 195.4,128.6 195.4,144.9 200.8,144.9 200.8,128.6 206.3,128.6 206.3,123.1 		"/>
	</g>
</g>
</svg>
