<svg xmlns="http://www.w3.org/2000/svg" width="475.076" height="477.405"><path fill="#E5E5E5" d="M-2926.496 40.419h868.899v190.464h-868.899z"/><path fill="#FFF" d="M-2183.976 138.876h-31.271c-2.375-.582-4.113-2.308-4.113-4.331 0-2.498 2.645-4.541 5.877-4.541h9.932c.059 0 .113-.007.17-.008h13.748a8.813 8.813 0 008.814-8.815 8.812 8.812 0 00-8.814-8.813H-2253.694c-29.005-22.855-65.611-36.494-105.405-36.494l-406.106.083a9.105 9.105 0 00-1.152-.083h-21.188a8.871 8.871 0 000 17.742h21.188c.157 0 .308-.015.462-.023h22.297c3.231 0 5.876 2.043 5.876 4.542s-2.645 4.542-5.876 4.542h-6.161c-.035 0-.07.004-.105.005h-15.6a8.87 8.87 0 00-8.87 8.872 8.871 8.871 0 008.87 8.871h6.361c-17.158 15.668-31.1 34.796-40.724 56.282h-54.631a8.812 8.812 0 00-8.813 8.813 8.813 8.813 0 008.813 8.815h20.947c.056.001-19.962.008-19.906.008h30.007c3.231 0 5.875 2.043 5.875 4.541 0 2.024-1.736 3.75-4.114 4.331h-18.393a8.814 8.814 0 000 17.628h27.288c-1.246 8.311-1.724 10.041-1.724 10.041l625.843.002s-4.177-57.875-25.59-74.381h30.25a8.813 8.813 0 008.812-8.814 8.814 8.814 0 00-8.813-8.815z"/><path fill="#EDEDED" d="M-2902.812 159.733c.741-.417 1.005-.152.588.589l.001 3.038c.417.742.152 1.006-.589.589h-3.039c-.741.418-1.006.153-.589-.588v-3.04c-.416-.741-.151-1.006.589-.59l3.039.002z"/><path opacity=".5" fill="#EDEDED" d="M-2875.895 168.465c.818.229.818.604-.001.832l-2.148 2.149c-.229.818-.604.818-.833 0l-2.148-2.149c-.818-.229-.818-.604-.001-.832l2.149-2.15c.229-.818.604-.818.833 0l2.149 2.15z"/><path fill="#EDEDED" d="M-2817.506 160.499c.817.229.817.604-.001.832l-2.149 2.149c-.229.818-.603.818-.832 0l-2.149-2.149c-.818-.229-.818-.604-.001-.832l2.15-2.15c.229-.818.604-.818.832 0l2.15 2.15zM-2959.363 137.46c.818.229.818.604-.001.832l-2.149 2.149c-.229.818-.603.818-.833 0l-2.149-2.149c-.818-.229-.818-.603 0-.832l2.149-2.15c.229-.818.604-.818.833 0l2.15 2.15z"/><path opacity=".5" fill="#EDEDED" d="M-2407.199 65.624c.435.122.435.321 0 .443l-1.144 1.143c-.122.436-.321.436-.443 0l-1.144-1.143c-.436-.123-.436-.322-.001-.443l1.145-1.145c.122-.436.321-.436.443 0l1.144 1.145zM-2444.283 87.894c.435.122.435.321 0 .443l-1.144 1.144c-.122.436-.321.436-.443 0l-1.144-1.144c-.436-.122-.436-.321-.001-.443l1.145-1.144c.122-.436.321-.436.443 0l1.144 1.144z"/><path opacity=".5" fill="#FFF" d="M-2097.827 106.36c.435.122.435.321 0 .443l-1.144 1.144c-.122.436-.321.436-.443 0l-1.144-1.144c-.436-.122-.436-.321-.001-.443l1.145-1.144c.122-.436.321-.436.443 0l1.144 1.144z"/><path opacity=".5" fill="#EDEDED" d="M-2560.609 73.008c.435.122.435.321 0 .443l-1.144 1.143c-.122.436-.321.436-.443 0l-1.144-1.143c-.436-.123-.436-.322-.001-.443l1.145-1.145c.122-.436.321-.436.443 0l1.144 1.145zM-2369.838 71.606c.436.122.436.321 0 .443l-1.144 1.143c-.122.436-.321.436-.443 0l-1.144-1.143c-.436-.123-.436-.322-.001-.443l1.145-1.145c.122-.436.321-.436.443 0l1.144 1.145zM-2859.979 151.359c.436.122.436.321 0 .443l-1.144 1.143c-.122.436-.321.436-.442 0l-1.145-1.143c-.436-.123-.436-.322-.001-.443l1.146-1.145c.121-.436.32-.436.442 0l1.144 1.145zM-2755.127 166.296c.435.122.435.321 0 .443l-1.144 1.143c-.122.436-.321.436-.443 0l-1.144-1.143c-.437-.122-.437-.322-.001-.443l1.145-1.145c.122-.436.321-.436.443 0l1.144 1.145zM-2411.111 126.762c.436.122.436.321 0 .443l-1.144 1.143c-.122.436-.321.436-.442 0l-1.145-1.143c-.436-.123-.436-.322-.001-.443l1.146-1.145c.121-.436.32-.436.442 0l1.144 1.145zM-2386.443 62.377c.817.229.817.604-.001.833l-2.149 2.149c-.229.818-.604.818-.832 0l-2.148-2.149c-.819-.229-.819-.604-.002-.833l2.15-2.15c.229-.818.603-.818.832 0l2.15 2.15z"/><path opacity=".5" fill="#B7B7B7" d="M-2389.622 111.806c.817.229.817.604-.001.833l-2.149 2.149c-.229.818-.604.818-.832 0l-2.149-2.149c-.818-.229-.818-.603-.001-.833l2.15-2.149c.229-.819.603-.819.832 0l2.15 2.149zM-2518.445 85.084c.817.229.817.604-.001.833l-2.149 2.149c-.229.818-.604.818-.833 0l-2.148-2.149c-.819-.229-.819-.604-.002-.833l2.15-2.149c.229-.819.603-.819.833 0l2.15 2.149z"/><path fill="#FFF" d="M-2850.546 133.63c.378-1.353.998-1.353 1.377.001l3.555 3.555c1.354.38 1.354 1 0 1.377l-3.556 3.556c-.379 1.355-.999 1.355-1.377.002l-3.556-3.558c-1.354-.378-1.355-.998 0-1.378l3.557-3.555zM-2235.473 70.106c.378-1.353.998-1.353 1.377.001l3.555 3.555c1.354.38 1.354 1 0 1.377l-3.556 3.556c-.379 1.355-.999 1.355-1.377.002l-3.556-3.558c-1.354-.378-1.355-.998 0-1.378l3.557-3.555z"/><path opacity=".5" fill="#B7B7B7" d="M-2320.161 166.63c.817.229.817.604-.001.833l-2.148 2.149c-.229.818-.604.818-.833 0l-2.148-2.149c-.819-.229-.819-.604-.002-.833l2.15-2.15c.229-.819.604-.819.833 0l2.149 2.15z"/><path opacity=".5" fill="#EDEDED" d="M-2313.802 93.903c.817.229.817.604-.001.833l-2.148 2.149c-.229.818-.604.818-.833 0l-2.148-2.149c-.819-.229-.819-.604-.002-.833l2.15-2.15c.229-.819.604-.819.833 0l2.149 2.15z"/><path opacity=".5" fill="#B7B7B7" d="M-2416.782 92.161c.817.229.817.604-.001.833l-2.148 2.149c-.229.818-.604.818-.833 0l-2.148-2.149c-.819-.229-.819-.604-.002-.833l2.15-2.149c.229-.819.604-.819.833 0l2.149 2.149zM-2491.422 102.749c.817.229.817.604-.001.833l-2.148 2.149c-.229.818-.604.818-.833 0l-2.149-2.149c-.819-.229-.819-.604-.002-.833l2.151-2.15c.229-.818.603-.818.833 0l2.149 2.15zM-2345.745 88.207c.817.229.817.604-.001.833l-2.148 2.149c-.229.818-.604.818-.833 0l-2.148-2.149c-.819-.229-.819-.604-.002-.833l2.15-2.15c.229-.818.604-.818.833 0l2.149 2.15z"/><path fill="#FFF" d="M-2887.663 108.474c.817.229.817.604-.001.832l-2.148 2.149c-.229.818-.604.818-.833 0l-2.148-2.149c-.819-.229-.819-.603-.002-.832l2.15-2.15c.229-.819.604-.819.833 0l2.149 2.15zM-2551.303 56.019c.817.229.817.604-.001.832l-2.148 2.149c-.229.818-.604.818-.833 0l-2.148-2.149c-.819-.229-.819-.603-.002-.832l2.15-2.15c.229-.819.604-.819.833 0l2.149 2.15z"/><path opacity=".5" fill="#FFF" d="M-2115.455 121.349c.817.229.817.604-.001.833l-2.149 2.149c-.229.818-.604.818-.833 0l-2.149-2.149c-.819-.229-.819-.604-.001-.833l2.15-2.15c.229-.818.603-.818.833 0l2.15 2.15z"/><path opacity=".5" fill="#B7B7B7" d="M-2154.174 190.504c.618.173.618.456 0 .629l-1.624 1.624c-.174.619-.457.619-.629 0l-1.624-1.624c-.619-.173-.619-.456-.001-.629l1.625-1.625c.173-.619.456-.619.629 0l1.624 1.625z"/><path fill="#EDEDED" d="M-2684.119 157.2c-.74.417-1.005.152-.588-.589l-.001-3.038c-.416-.742-.151-1.007.59-.59h3.039c.741-.418 1.006-.152.589.588v3.04c.416.741.151 1.006-.589.59l-3.04-.001zM-2768.245 164.077c-.817-.229-.817-.604.001-.832l2.149-2.148c.229-.818.603-.818.832 0l2.149 2.148c.818.229.818.604.001.832l-2.15 2.15c-.229.818-.604.818-.832 0l-2.15-2.15zM-2627.567 179.473c-.818-.229-.818-.604.001-.832l2.148-2.149c.229-.818.604-.818.833 0l2.148 2.149c.818.229.818.603.001.832l-2.149 2.149c-.229.818-.604.818-.833 0l-2.149-2.149z"/><path opacity=".5" fill="#EDEDED" d="M-2693.779 112.135c-.435-.122-.435-.321 0-.443l1.145-1.144c.121-.436.32-.436.442 0l1.144 1.144c.437.122.437.321.001.443l-1.145 1.145c-.122.436-.321.436-.442 0l-1.145-1.145zM-2616.638 155.82c-.436-.122-.436-.321 0-.443l1.144-1.144c.122-.436.321-.436.443 0l1.144 1.144c.436.122.436.321.001.443l-1.145 1.145c-.122.436-.321.436-.443 0l-1.144-1.145zM-2577.453 127.021c-.436-.122-.436-.321 0-.443l1.144-1.143c.122-.436.321-.436.443 0l1.144 1.143c.436.123.436.322.001.443l-1.145 1.145c-.122.436-.321.436-.443 0l-1.144-1.145zM-2768.224 128.423c-.436-.122-.436-.321 0-.443l1.144-1.144c.122-.436.321-.436.443 0l1.144 1.144c.436.122.436.321.001.443l-1.145 1.145c-.122.436-.321.436-.443 0l-1.144-1.145zM-2831.804 150.637c-.435-.122-.435-.321 0-.443l1.144-1.143c.122-.436.321-.436.443 0l1.144 1.143c.437.122.437.322.001.443l-1.145 1.145c-.122.436-.321.436-.443 0l-1.144-1.145zM-2726.951 73.267c-.436-.122-.436-.321 0-.443l1.144-1.144c.122-.436.321-.436.442 0l1.145 1.144c.436.122.436.321.001.443l-1.146 1.145c-.121.436-.32.436-.442 0l-1.144-1.145zM-2738.28 133.234c-.817-.229-.817-.604.001-.832l2.149-2.149c.229-.818.604-.818.832 0l2.148 2.149c.819.229.819.604.002.832l-2.15 2.15c-.229.818-.603.818-.832 0l-2.15-2.15z"/><path opacity=".5" fill="#B7B7B7" d="M-2692.487 103.857c-.817-.229-.817-.604.001-.832l2.149-2.149c.229-.818.604-.818.832 0l2.149 2.149c.818.229.818.603.001.832l-2.15 2.149c-.229.819-.603.819-.832 0l-2.15-2.149zM-2602.003 133.417c-.817-.229-.817-.604.001-.832l2.149-2.149c.229-.818.604-.818.832 0l2.148 2.149c.819.229.819.604.002.832l-2.15 2.149c-.229.819-.603.819-.832 0l-2.15-2.149zM-2836.095 82.737c-.817-.229-.817-.604.001-.833l2.148-2.148c.229-.818.604-.818.833 0l2.148 2.148c.819.229.819.604.002.833l-2.15 2.149c-.229.819-.604.819-.833 0l-2.149-2.149z"/><path opacity=".5" fill="#FFF" d="M-2824.261 106.125c-.817-.229-.817-.604.001-.833l2.148-2.149c.229-.818.604-.818.833 0l2.148 2.149c.819.229.819.604.002.833l-2.15 2.15c-.229.819-.604.819-.833 0l-2.149-2.15zM-2884.206 60.029c-.817-.229-.817-.604.001-.833l2.148-2.149c.229-.818.604-.818.833 0l2.148 2.149c.819.229.819.604.002.833l-2.15 2.15c-.229.819-.604.819-.833 0l-2.149-2.15zM-2156.277 56.849c-.817-.229-.817-.604.001-.833l2.148-2.149c.229-.818.604-.818.833 0l2.148 2.149c.819.229.819.604.002.833l-2.15 2.15c-.229.819-.604.819-.833 0l-2.149-2.15z"/><path opacity=".5" fill="#B7B7B7" d="M-2647.901 88.531c-.817-.229-.817-.604.001-.832l2.148-2.149c.229-.818.604-.818.833 0l2.148 2.149c.819.229.819.604.002.832l-2.15 2.149c-.229.819-.604.819-.833 0l-2.149-2.149zM-2280.77 145.768c-.817-.229-.817-.604.001-.833l2.148-2.148c.229-.818.604-.818.833 0l2.148 2.148c.819.229.819.604.002.833l-2.15 2.149c-.229.818-.604.818-.833 0l-2.149-2.149zM-2720.142 86.838c-.817-.229-.817-.604.001-.833l2.148-2.148c.229-.818.604-.818.833 0l2.148 2.148c.819.229.819.604.002.833l-2.15 2.149c-.229.818-.604.818-.833 0l-2.149-2.149z"/><path fill="#EDEDED" d="M-2564.541 107.924c-.817-.229-.817-.604.001-.832l2.148-2.149c.229-.818.604-.818.833 0l2.148 2.149c.819.229.819.603.002.832l-2.15 2.15c-.229.819-.604.819-.833 0l-2.149-2.15z"/><path opacity=".5" fill="#EDEDED" d="M-2566.233 122.702c-.817-.229-.817-.604.001-.833l2.148-2.148c.229-.818.604-.818.833 0l2.148 2.149c.819.229.819.604.002.833l-2.15 2.15c-.229.818-.604.818-.833 0l-2.149-2.151z"/><path opacity=".5" fill="#B7B7B7" d="M-2112.017 174.164c-.618-.173-.618-.456 0-.629l1.625-1.625c.173-.619.456-.619.629 0l1.624 1.625c.62.173.62.456.002.629l-1.626 1.625c-.173.619-.456.619-.629 0l-1.625-1.625z"/><path fill="#A9A8A8" d="M-2286.947-8.89h-.947a8.778 8.778 0 00-8.778 8.779c0 4.85 3.93 8.78 8.778 8.78h.947a8.78 8.78 0 000-17.559zM-2678.576-62.983h-.947a8.778 8.778 0 00-8.778 8.779c0 4.85 3.93 8.78 8.778 8.78h.947a8.78 8.78 0 008.779-8.78 8.778 8.778 0 00-8.779-8.779z"/><path fill="#FFF" d="M-2792.782 103.442h-.947a8.78 8.78 0 00-8.779 8.78c0 4.85 3.93 8.78 8.779 8.78h.947a8.78 8.78 0 008.779-8.78 8.78 8.78 0 00-8.779-8.78zM-2157.863 139.201h-.947a8.78 8.78 0 00-8.779 8.78c0 4.85 3.93 8.78 8.779 8.78h.947a8.78 8.78 0 008.779-8.78 8.78 8.78 0 00-8.779-8.78z"/><path fill="#B7B7B7" d="M-2281.522 133.671a3.318 3.318 0 000-6.637h-15.393V114.78h15.393a3.318 3.318 0 000-6.638h-15.393v-15.24c3.368-1.523 5.717-4.905 5.717-8.843 0-5.361-4.347-9.708-9.708-9.708s-9.708 4.346-9.708 9.708c0 3.938 2.349 7.32 5.718 8.843v15.241h-15.241a3.318 3.318 0 000 6.638h15.241v12.254h-15.241a3.318 3.318 0 100 6.637h15.241v7.873c-.003 56.197-17.928 94.77-17.928 94.77h43.819s-17.313-37.259-17.91-91.89v-10.752h15.393z"/><path fill="#EAEAEA" d="M-2783.462 204.163h47.322c5.548 0 10.046 4.498 10.046 10.046 0 5.548-4.498 10.046-10.046 10.046h-47.322c-5.548 0-10.046-4.498-10.046-10.046 0-5.548 4.498-10.046 10.046-10.046z"/><path fill="#B7B7B7" d="M-2491.615 292.53h45.745V96.785h-100.099v87.678l52.443.051z"/><g fill="#A9A8A8"><path d="M-2530.004 102.961h5.203v81.502h-5.203zM-2538.996 102.961h5.202v81.502h-5.202zM-2521.011 102.961h5.202v81.502h-5.202zM-2512.019 102.961h5.202v81.502h-5.202zM-2503.027 102.961h5.202v81.502h-5.202zM-2488.832 205.429l-5.202-2.443V102.961h5.202zM-2479.84 209.837l-5.202-2.48V102.961h5.202zM-2476.05 102.961h5.203v45.391h-5.203zM-2467.057 102.961h5.202v45.391h-5.202zM-2458.065 102.961h5.202v45.391h-5.202z"/></g><path fill="#B7B7B7" d="M-2585.14 183.886h91.105v51.54h-91.105z"/><path fill="#DCDBDB" d="M-2677.934 161.803h93.183v73.083h-93.183z"/><path fill="#DCDBDB" d="M-2611.87 143.236h58.001v87.503h-58.001z"/><path fill="#B7B7B7" d="M-2400.565 212.043h129.721v18.696h-129.721z"/><path fill="#DCDBDB" d="M-2662.479 107.509h40.648v127.916h-40.648z"/><g fill="#FFF"><path d="M-2673.499 116.937h35.346v5.35h-35.346zM-2673.499 126.951h35.346v5.35h-35.346zM-2673.499 136.966h35.346v5.35h-35.346zM-2673.499 146.98h35.346v5.349h-35.346zM-2673.499 156.995h35.346v5.35h-35.346zM-2673.499 167.009h35.346v5.35h-35.346z"/></g><path fill="#CFCECE" d="M-2586.142 108.171c-2.724-7.334-1.889-14.803 1.63-19.186.692-.862-.327-1.434-1.245-1.14-9.42 3.845-14.149 14.505-10.581 24.112 3.563 9.592 14.075 14.58 23.709 11.376 1.495-.458 1.065-1.503-.155-1.773-5.389-1.189-10.699-6.232-13.358-13.389z"/><path fill="#EDEDED" d="M-2505.3-45.705c0-10.639 4.601-19.765 11.162-23.687 1.291-.771.263-1.983-1.046-2.043-13.83.442-24.905 11.792-24.905 25.729 0 13.915 11.04 25.25 24.838 25.728 2.124.124 2.07-1.413.643-2.333-6.31-4.068-10.692-13.011-10.692-23.394z"/><path fill="#EAEAEA" d="M-2740.198 189.264c0 5.574-4.517 10.092-10.09 10.092h-42.129c-5.573 0-10.09-4.518-10.09-10.092 0-5.573 4.517-10.09 10.09-10.09h42.129c5.573 0 10.09 4.517 10.09 10.09z"/><path fill="#F9F9FA" d="M-2826.776 433.082c0 5.406 1.405 9.789-4 9.789h-4.672c-5.405 0-9.787-4.383-9.787-9.789 0-5.408 4.382-9.789 9.787-9.789h4.672c5.405-.001 4 4.38 4 9.789zM-2853.884 432.732c0 5.406-4.382 9.787-9.787 9.787h-4.672c-5.405 0-9.788-4.381-9.788-9.787a9.787 9.787 0 019.788-9.789h4.672c5.405 0 9.787 4.381 9.787 9.789z"/><path opacity=".5" fill="#F9F9FA" d="M-2590.738-57.845h3.42v7.282h-3.42z"/><g fill="#A9A8A8"><path d="M-2603.765 155.59h41.79v5.324h-41.79zM-2603.765 165.558h41.79v5.324h-41.79zM-2603.765 175.525h41.79v5.324h-41.79zM-2603.765 185.493h41.79v5.324h-41.79zM-2603.765 195.461h41.79v5.324h-41.79zM-2603.765 205.429h41.79v5.324h-41.79z"/></g><path fill="#EAEAEA" d="M-2446.673 141.352h80.223v89.922h-80.223z"/><path fill="#A9A8A8" d="M-2438.028 148.59h62.695v5.324h-62.695zM-2438.028 158.558h62.695v5.324h-62.695zM-2438.028 168.525h57.027v5.324h-57.027zM-2438.028 178.493h59.002v5.324h-59.002zM-2438.028 188.461h59.002v5.324h-59.002zM-2438.028 198.429h59.002v5.324h-59.002zM-2379.026 213.721h-45.286l-11.039-5.325h56.325z"/><path fill="#DCDBDB" d="M-2501.374 121.696h80.223v144.179h-80.223z"/><path fill="#CFCECE" d="M-2492.729 128.934h62.695v5.324h-62.695zM-2492.729 138.902h62.695v5.324h-62.695zM-2492.729 148.87h57.027v5.324h-57.027zM-2492.729 158.837h59.002v5.324h-59.002zM-2492.729 168.805h59.002v5.324h-59.002zM-2492.729 178.773h59.002v5.324h-59.002zM-2433.727 194.065h-45.285l-11.039-5.324h56.324zM-2433.549 204.033h-24.621l-11.163-5.325h35.784zM-2458.17 208.676h24.621V214h-24.621zM-2458.17 218.644h24.621v5.324h-24.621zM-2458.17 228.612h24.621v5.324h-24.621zM-2717.473 148.468c-.818-.229-.818-.604.001-.832l2.148-2.149c.229-.818.604-.818.833 0l2.148 2.149c.818.229.818.604.001.832l-2.149 2.149c-.229.818-.604.818-.833 0l-2.149-2.149z"/><path opacity=".5" fill="#EDEDED" d="M-2731.696 124.523c-.435-.122-.435-.321 0-.443l1.144-1.144c.122-.436.321-.436.443 0l1.144 1.144c.436.122.436.321.001.443l-1.145 1.145c-.122.436-.321.436-.443 0l-1.144-1.145z"/><path fill="#CFCECE" d="M-2733.388 165.575c-.436-.122-.436-.321 0-.443l1.144-1.144c.122-.436.321-.436.442 0l1.145 1.144c.436.122.436.321.001.443l-1.146 1.145c-.121.436-.32.436-.442 0l-1.144-1.145zM-2716.02 179.366c-1.224.689-1.662.251-.973-.974v-5.028c-.688-1.226-.251-1.664.974-.974h5.028c1.227-.69 1.664-.252.976.972l-.001 5.03c.69 1.226.253 1.664-.975.975l-5.029-.001z"/><path fill="#EAEAEA" d="M-2776.355 145.352h70.782v92.584h-70.782z"/><path fill="#CFCECE" d="M-2768.728 151.738h55.317v4.697h-55.317zM-2768.728 160.533h55.317v4.697h-55.317zM-2768.728 169.327h47.172v4.698h-47.172zM-2768.728 178.122h52.058v4.698h-52.058zM-2768.728 186.917h52.058v4.698h-52.058zM-2768.728 195.711h52.058v4.698h-52.058zM-2768.728 203.961h52.058v4.698h-52.058zM-2768.728 212.755h52.058v4.697h-52.058zM-2768.728 221.55h52.058v4.697h-52.058z"/><path fill="#EDEDED" d="M-2148.132 96.411c.818.229.818.604-.001.833l-2.147 2.148c-.229.819-.604.819-.833 0l-2.149-2.148c-.819-.229-.819-.604-.001-.833l2.15-2.15c.229-.818.604-.818.833 0l2.148 2.15zM-2680.032 62.377c.818.229.818.604-.001.833l-2.147 2.148c-.229.819-.604.819-.833 0l-2.149-2.148c-.819-.229-.819-.604-.001-.833l2.15-2.15c.229-.818.604-.818.833 0l2.148 2.15zM-2465.435 62.377c.818.229.818.604-.001.833l-2.147 2.148c-.229.819-.604.819-.833 0l-2.149-2.148c-.819-.229-.819-.604-.001-.833l2.15-2.15c.229-.818.604-.818.833 0l2.148 2.15zM-2363.884 52.838c.818.229.818.604-.001.833l-2.147 2.148c-.229.819-.604.819-.833 0l-2.149-2.148c-.819-.229-.819-.604-.001-.833l2.15-2.15c.229-.818.604-.818.833 0l2.148 2.15z"/><path opacity=".5" fill="#EDEDED" d="M-2585.97 6.339c.435.122.435.321 0 .443l-1.145 1.144c-.121.436-.32.436-.442 0l-1.145-1.144c-.436-.122-.436-.321 0-.443l1.145-1.144c.122-.436.321-.436.442 0l1.145 1.144zM-2705.759 24.817c.435.122.435.321 0 .443l-1.145 1.144c-.121.436-.32.436-.442 0l-1.145-1.144c-.436-.122-.436-.321 0-.443l1.145-1.144c.122-.436.321-.436.442 0l1.145 1.144z"/><path opacity=".5" fill="#B7B7B7" d="M-2458.884 99.387c.817.229.817.604 0 .833l-2.149 2.148c-.229.818-.604.818-.833 0l-2.149-2.148c-.819-.229-.819-.604-.002-.833l2.151-2.15c.229-.819.603-.819.833 0l2.149 2.15z"/><path fill="#B7B7B7" d="M-2485.042 83.306h32.179v13.479h-32.179z"/><path fill="#DCDBDB" d="M-2612.145-67.725h80.223v34.324h-80.223z"/><path fill="#B7B7B7" d="M-2657.936-60.943h32.179v13.479h-32.179z"/><path fill="none" d="M-2360.298-24.932c8.822 2.783 18.882 16.58 7.538 22.738-11.345 6.159-17.553 10.991-15.198 26.905"/><path fill="#A9A8A8" d="M-2481.056 464.934s-2.786.513-3.779-1.689c-.994-2.203-.867-3.408-2.148-4.339s-1.877-2.185-.871-2.64c1.007-.454 1.562.955 2.167.496s-2.238-2.442-1.27-3.161c.968-.718 1.843 1.054 2.69.496.847-.559-1.405-2.579-.392-3.177 1.014-.598 1.606 1.343 2.612 1.123 1.006-.221-.392-1.916.735-2.271 1.127-.356 1.277 1.774 1.679 1.736.402-.038.163-2.051 1.351-1.763 1.188.288.257 2.755 1.098 2.89s.796-1.473 1.605-1.348c.809.125-.467 2.328.406 2.453s.918-.879 1.721-.754c.803.124.883 6.916.883 6.916l-8.487 5.032"/><path fill="#F9F9FA" d="M-2462.463 503.152a7.716 7.716 0 01-6.359-12.078l18.832-27.492a7.715 7.715 0 1112.731 8.721l-18.831 27.492a7.71 7.71 0 01-6.373 3.357z"/><path fill="#EF4123" d="M-2471.267 461.886s15.346-3.668 21.288 3.101c5.858 6.672-1.382 14.758-1.382 14.758l-22.471-7.528 2.565-10.331z"/><path fill="#E83E34" d="M-2482.436 476.341c-2.896 0-6.033-.767-9.218-2.778a2.892 2.892 0 113.091-4.892c7.874 4.973 14.537-1.449 14.816-1.726a2.902 2.902 0 014.087.014 2.886 2.886 0 01.007 4.075c-2.302 2.317-7.069 5.307-12.783 5.307zM-2465.768 465.35l-4.143-4.04-.068.073c.052-.062 1.276-1.559 1.294-5.236.027-5.254-3.84-7.748-4.005-7.852-1.343-.845-1.767-2.622-.935-3.974s2.585-1.788 3.943-.97c.279.168 6.827 4.209 6.784 12.824-.03 6.087-2.58 8.876-2.87 9.175zM-2451.11 484.696c-.258 0-.521-.035-.782-.109l-13.996-3.921a2.892 2.892 0 111.562-5.572l13.996 3.921a2.895 2.895 0 01-.78 5.681z"/><path fill="#E83E34" d="M-2459.979 487.881c-.282 0-.569-.041-.852-.129l-12.137-3.736a2.892 2.892 0 01-.424-5.362l6.609-3.245-6.966-2.031a2.894 2.894 0 111.62-5.555l14.126 4.118a2.895 2.895 0 01.466 5.374l-6.755 3.317 5.163 1.59a2.894 2.894 0 01-.85 5.659z"/><path fill="#F7941E" d="M-2456.976 482.833l-8.836-2.757-4.064 4.924 10.122 3.209 2.427-5.261"/><path fill="#F7941E" d="M-2449.768 479.239l-9.931-2.88-4.308 4.397 12.292 4.274 1.947-5.791"/><path fill="#EF4123" d="M-2446.301 481.311l-4.709 6.879c-.434.635-1.427.342-1.446-.428l-.209-8.191a.793.793 0 01.997-.785l4.917 1.311a.793.793 0 01.45 1.214zM-2455.357 484.304l-5.41 7.615c-.25.366-.823.175-.804-.268l.39-9.343a.44.44 0 01.549-.409l5.021 1.728a.442.442 0 01.254.677z"/><path fill="#F7941E" d="M-2472.434 456.932c1.046.414.587 1.66.143 2.477l-2.553-1.357c.508-.671 1.39-1.522 2.41-1.12z"/><path fill="#F7941E" d="M-2473.76 468.768c2.871.377 4.6-2.211 4.606-4.733.01-4.317-3.828-6.041-7.84-7.509-4.012-1.467-9.126 5.1-4.062 8.408 3.445 2.25 4.426 3.455 7.296 3.834z"/><path fill="#A9A8A8" d="M-2483.169 461.267s1.089 1.698 2.129.618c1.041-1.081-1.196-3.655.397-4.784 1.592-1.13-.568-3.109-.568-3.109l-3.561 4.805 1.603 2.47"/><path opacity=".5" fill="#FFF" d="M-2471.797 459.038l-6.206 8.018-3.053-2.122 5.971-7.643z"/><path opacity=".5" fill="#FFF" d="M-2476.892 459.604l.832 4.963-1.519 1.947-.832-4.967z"/><path fill="#EF4123" d="M-2475.39 466.391l-.909 1.273a.266.266 0 01-.453-.031l-1.578-3.02c-.129-.248.161-.503.39-.342l2.487 1.745a.27.27 0 01.063.375z"/><path fill="#EDEDED" d="M-2400.203 186.327h170.855v44.947h-170.855zM-2734.243 201.497h135.483v33.059h-135.483zM-2590.012 217.481h126.785v17.075h-126.785z"/><g fill="#EDEDED"><path d="M-2359.866 119.401h23.11v113.337h-23.11z"/><path d="M-2365.477 118.39h34.52v14.611h-34.52z"/></g><path fill="#FFF" d="M-2211.276 230.739h46.141a8.396 8.396 0 100-16.791h-14.763c-.034-.001-.067-.005-.101-.005h-5.83c-3.059 0-5.562-1.935-5.562-4.299 0-2.364 2.503-4.298 5.562-4.298h21.103c.146.007.289.022.437.022h20.052a8.395 8.395 0 008.395-8.396 8.394 8.394 0 00-8.395-8.395h-20.052a8.5 8.5 0 00-1.09.078h-53.105l6.897 42.072c.104.003.207.012.311.012z"/><path fill="#DCDBDB" d="M-2229.071 183.187c0 5.574-4.517 10.092-10.09 10.092h-42.13c-5.572 0-10.09-4.518-10.09-10.092 0-5.573 4.518-10.09 10.09-10.09h42.13c5.573-.001 10.09 4.517 10.09 10.09z"/><path fill="#EDEDED" d="M-2533.454 173.01l70.816 33.768-.136 72.111h-70.68z"/><path fill="#B7B7B7" d="M-2499.331 221.836h5.435v5.785h-5.435zM-2508.591 211.959h5.435v5.785h-5.435zM-2517.28 201.781h5.435v5.785h-5.435zM-2524.988 193.217h5.435v5.785h-5.435zM-2489.248 233.119h5.435v5.785h-5.435zM-2475.062 211.959h5.435v5.785h-5.435z"/><path fill="#EDEDED" d="M-2663.163 171.737h77.892v84.527h-77.892z"/><path opacity=".5" fill="#C9C9C9" d="M-2642.062 231.245h3.42v7.282h-3.42zM-2642.062 187.178h3.42v7.282h-3.42zM-2642.062 198.529h3.42v7.283h-3.42zM-2618.252 219.636h3.421v7.282h-3.421zM-2630.375 187.178h3.421v7.282h-3.421zM-2599.437 207.436h3.421v7.282h-3.421zM-2612.846 207.435h3.42v7.283h-3.42zM-2599.437 219.636h3.42v7.282h-3.42zM-2599.437 231.245h3.42v7.282h-3.42zM-2599.437 187.178h3.421v7.282h-3.421zM-2615.57 357.245h3.42v7.282h-3.42zM-2615.57 313.178h3.42v7.282h-3.42zM-2615.57 324.529h3.42v7.283h-3.42zM-2591.761 345.636h3.421v7.282h-3.421zM-2603.884 313.178h3.421v7.282h-3.421zM-2572.945 333.436h3.421v7.282h-3.421zM-2586.354 333.435h3.42v7.283h-3.42zM-2572.945 345.636h3.42v7.282h-3.42zM-2572.945 357.245h3.42v7.282h-3.42zM-2572.945 313.178h3.421v7.282h-3.421zM-2389.473 193.665h3.42v7.282h-3.42zM-2389.473 205.016h3.42v7.283h-3.42zM-2377.787 193.665h3.421v7.282h-3.421zM-2346.848 213.923h3.421v7.282h-3.421zM-2360.257 213.922h3.42v7.283h-3.42zM-2346.848 193.665h3.421v7.282h-3.421zM-2330.045 193.665h3.42v7.282h-3.42zM-2330.045 205.016h3.42v7.283h-3.42zM-2318.359 193.665h3.421v7.282h-3.421zM-2287.42 213.923h3.421v7.282h-3.421zM-2300.83 213.922h3.42v7.283h-3.42zM-2287.42 203.665h3.421v7.282h-3.421z"/><path fill="#DCDBDB" d="M-2233.18 169.234h47.321c5.549 0 10.046 4.498 10.046 10.046 0 5.548-4.497 10.046-10.046 10.046h-47.321c-5.549 0-10.046-4.498-10.046-10.046 0-5.548 4.497-10.046 10.046-10.046zM-2250.18 197.389h47.321c5.549 0 10.046 4.498 10.046 10.046 0 5.548-4.497 10.046-10.046 10.046h-47.321c-5.549 0-10.046-4.498-10.046-10.046 0-5.548 4.497-10.046 10.046-10.046z"/><path fill="#DCDBDB" d="M-2264.871 129.259h40.648v103.479h-40.648z"/><g fill="#A9A8A8"><path d="M-2255.549 145.687h35.346v5.35h-35.346zM-2255.549 155.701h35.346v5.35h-35.346zM-2255.549 165.716h35.346v5.35h-35.346zM-2255.549 175.73h35.346v5.349h-35.346zM-2255.549 185.745h35.346v5.35h-35.346zM-2255.549 195.759h35.346v5.35h-35.346z"/></g><path fill="#E5E5E5" d="M0 0h475.076v477.405H0z"/><g fill="#FFF"><path d="M440.634 150.196h-.947a8.778 8.778 0 00-8.777 8.779c0 4.85 3.93 8.78 8.777 8.78h.947a8.78 8.78 0 000-17.559zM32.79 214.616h-.947a8.778 8.778 0 00-8.778 8.78c0 4.85 3.93 8.78 8.778 8.78h.947a8.78 8.78 0 008.779-8.78 8.78 8.78 0 00-8.779-8.78zM422.095 176.675h-31.27c-2.377-.582-4.113-2.308-4.113-4.331 0-2.498 2.645-4.541 5.875-4.541h9.934c.057 0 .113-.007.168-.008h13.75a8.815 8.815 0 000-17.628H352.378c-29.006-22.855-65.611-36.494-105.406-36.494-1.715 0-3.424.033-5.129.083H125.976a9.105 9.105 0 00-1.152-.083h-21.188a8.871 8.871 0 000 17.742h21.188c.156 0 .308-.015.463-.023h22.297c3.231 0 5.876 2.043 5.876 4.542s-2.645 4.542-5.876 4.542h-6.161c-.035 0-.07.004-.105.005h-15.6a8.87 8.87 0 00-8.87 8.872 8.871 8.871 0 008.87 8.871h6.36c-17.157 15.668-31.1 34.796-40.724 56.282H56.796a8.812 8.812 0 00-8.813 8.813 8.813 8.813 0 008.813 8.815h.873c.057.001.111.008.168.008h9.934c3.231 0 5.875 2.043 5.875 4.541 0 2.024-1.736 3.75-4.114 4.331H51.139a8.814 8.814 0 000 17.628h27.288a171.71 171.71 0 00-1.896 25.474c0 35.299.172 153.05.172 153.05s111.438 17.393 170.27 17.393c64.709 0 170.463-17.391 170.463-17.391s-.02-123.629-.02-153.052c0-32.962-9.367-63.732-25.57-89.812h30.25a8.813 8.813 0 008.814-8.814 8.814 8.814 0 00-8.815-8.815z"/></g><path fill="#B7B7B7" d="M374.442 131.741a3.318 3.318 0 003.318-3.319 3.317 3.317 0 00-3.318-3.318H359.05V112.85h15.393a3.318 3.318 0 003.318-3.319 3.318 3.318 0 00-3.318-3.319H359.05V90.971c3.369-1.523 5.717-4.905 5.717-8.843 0-5.361-4.346-9.708-9.707-9.708s-9.709 4.346-9.709 9.708c0 3.938 2.35 7.32 5.719 8.843v15.241h-15.242a3.319 3.319 0 000 6.638h15.242v12.254h-15.242a3.319 3.319 0 000 6.637h15.242v7.873c-.004 56.197-17.928 94.77-17.928 94.77v104.205h43.818V234.383s-17.312-37.259-17.91-91.89v-10.752h15.392z"/><path fill="#B7B7B7" d="M365.769 245.352h40.648v127.916h-40.648z"/><path fill="#FFF" d="M40.14 283.084h47.321c5.548 0 10.046 4.498 10.046 10.046 0 5.548-4.498 10.046-10.046 10.046H40.14c-5.549 0-10.047-4.498-10.047-10.046 0-5.548 4.498-10.046 10.047-10.046zM382.565 250.083h47.32c5.549 0 10.047 4.498 10.047 10.046 0 5.548-4.498 10.046-10.047 10.046h-47.32c-5.549 0-10.047-4.498-10.047-10.046.001-5.548 4.499-10.046 10.047-10.046z"/><path fill="#B7B7B7" d="M196.958 411.087h45.744V215.341H142.603v87.679l52.443.05z"/><g fill="#A9A8A8"><path d="M158.568 221.518h5.202v81.502h-5.202zM149.576 221.518h5.202v81.502h-5.202zM167.562 221.518h5.201v81.502h-5.201zM176.554 221.518h5.201v81.502h-5.201zM185.546 221.518h5.201v81.502h-5.201zM199.74 323.985l-5.202-2.443V221.518h5.202zM208.732 328.394l-5.202-2.48V221.518h5.202zM212.522 221.518h5.203v45.391h-5.203zM221.515 221.518h5.203v45.391h-5.203zM230.507 221.518h5.203v45.391h-5.203z"/></g><path fill="#B7B7B7" d="M103.433 302.442h91.105v83.633h-91.105z"/><path fill="#DCDBDB" d="M286.369 316.729h46.591v79.902h-46.591zM76.702 261.792h58.001V425.33H76.702z"/><path fill="#DCDBDB" d="M208.732 259.908h80.224v144.179h-80.224z"/><path fill="#FFF" d="M251.937 376.792h24.621v5.324h-24.621z"/><path fill="#B7B7B7" d="M288.007 330.6h129.721v69.834H288.007z"/><path fill="#E5E5E5" d="M56.787 363.824h380.802v90.733H56.787z"/><path fill="#E5E5E5" d="M181.146 308.334l70.816 33.768-.137 72.111h-70.679zM56.812 329.841h77.892v84.528H56.812zM372.11 333.935h65.479v80.809H372.11z"/><path fill="#E5E5E5" d="M285.189 352.62h145.194v47.813H285.189zM299.016 223.954h23.109V330.6h-23.109z"/><path fill="#E5E5E5" d="M293.404 222.942h34.52v14.611h-34.52z"/><g fill="#FFF"><path d="M382.091 254.779h35.346v5.35h-35.346zM382.091 264.793h35.346v5.35h-35.346zM382.091 274.808h35.346v5.35h-35.346zM382.091 284.823h35.346v5.349h-35.346zM382.091 294.837h35.346v5.35h-35.346zM382.091 304.852h35.346v5.35h-35.346z"/></g><g fill="#B7B7B7"><path d="M77.913 337.282h3.42v7.282h-3.42zM77.913 348.633h3.42v7.283h-3.42zM101.722 369.741h3.422v7.282h-3.422zM89.599 337.282h3.422v7.282h-3.422zM120.538 357.54h3.421v7.282h-3.421zM107.129 357.54h3.421v7.283h-3.421zM120.538 369.741h3.42v7.282h-3.42zM120.538 337.282h3.421v7.282h-3.421z"/></g><g fill="#B7B7B7"><path d="M412.3 345.282h3.42v7.282h-3.42zM381.36 365.54h3.421v7.282h-3.421zM394.771 365.54h3.42v7.283h-3.42zM381.36 345.282h3.421v7.282h-3.421z"/></g><g fill="#FFF"><path d="M159.807 346.367h3.42v7.282h-3.42zM171.93 313.908h3.42v7.282h-3.42zM140.99 334.166h3.421v7.282h-3.421zM154.4 334.166h3.42v7.283h-3.42zM140.99 346.367h3.421v7.282h-3.421zM140.99 313.908h3.421v7.282h-3.421z"/></g><path fill="#B7B7B7" d="M206.009 347.283h5.435v5.785h-5.435zM197.319 337.104h5.436v5.785h-5.436zM189.612 328.541h5.434v5.785h-5.434zM225.353 368.442h5.436v5.785h-5.436zM239.538 347.283h5.436v5.785h-5.436z"/><path fill="#FFF" d="M217.378 267.146h62.695v5.324h-62.695zM217.378 277.114h62.695v5.324h-62.695zM217.378 287.082h62.695v5.324h-62.695zM217.378 297.05h59.002v5.324h-59.002zM217.378 307.018h59.002v5.324h-59.002zM217.378 316.985h59.002v5.324h-59.002z"/><g fill="#A9A8A8"><path d="M76.702 274.146h58.001v5.324H76.702zM76.702 284.114h58.001v5.324H76.702zM76.702 294.082h58.001v5.324H76.702zM76.702 304.05h58.001v5.324H76.702zM76.702 314.018h58.001v5.324H76.702zM76.702 323.985h58.001v5.324H76.702z"/></g><path fill="#FFF" d="M276.38 332.277h-45.285l-11.039-5.324h56.324zM276.558 342.245h-24.621l-11.164-5.324h35.785zM251.937 346.889h24.621v5.324h-24.621zM251.937 356.856h24.621v5.324h-24.621z"/><path fill="#EDEDED" d="M127.446 224.485c.818.229.818.604-.002.833l-2.146 2.148c-.23.819-.604.819-.834 0l-2.148-2.148c-.82-.229-.82-.604-.002-.833l2.15-2.15c.229-.818.604-.818.834 0l2.148 2.15zM97.123 187.057c.435.122.435.321 0 .443l-1.145 1.144c-.121.436-.32.436-.442 0l-1.145-1.144c-.436-.122-.436-.321 0-.443l1.145-1.144c.122-.436.321-.436.442 0l1.145 1.144zM120.212 143.374c.436.122.436.321 0 .443l-1.145 1.144c-.121.436-.32.436-.441 0l-1.145-1.144c-.436-.122-.436-.321 0-.443l1.145-1.144c.121-.436.32-.436.441 0l1.145 1.144zM98.31 238.756c1.354.379 1.354.999 0 1.377l-3.555 3.555c-.381 1.354-1 1.354-1.379 0l-3.555-3.555c-1.355-.379-1.355-.999-.002-1.377l3.557-3.556c.379-1.355.998-1.355 1.379 0l3.555 3.556z"/><path fill="#B7B7B7" d="M229.688 217.944c.816.229.816.604-.001.833l-2.149 2.148c-.229.818-.604.818-.832 0l-2.148-2.148c-.82-.229-.82-.604-.002-.833l2.15-2.15c.229-.819.604-.819.832 0l2.15 2.15z"/><g fill="#EDEDED"><path d="M234.629 161.386c.741-.417 1.005-.152.588.589l.001 3.038c.416.742.152 1.006-.59.589h-3.039c-.74.418-1.006.153-.589-.588v-3.04c-.416-.741-.151-1.006.589-.59l3.04.002zM261.546 170.118c.818.229.818.604 0 .832l-2.148 2.149c-.229.818-.604.818-.834 0l-2.148-2.149c-.818-.229-.818-.604 0-.832l2.148-2.15c.23-.818.605-.818.834 0l2.148 2.15zM316.755 141.679c.818.229.818.604 0 .832l-2.15 2.149c-.229.818-.602.818-.832 0l-2.148-2.149c-.818-.229-.818-.604-.002-.832l2.15-2.15c.23-.818.604-.818.832 0l2.15 2.15zM178.077 139.113c.818.229.818.604 0 .832l-2.149 2.149c-.229.818-.603.818-.833 0l-2.148-2.149c-.818-.229-.818-.603 0-.832l2.148-2.15c.23-.818.604-.818.833 0l2.149 2.15zM281.374 184.18c.434.122.434.321 0 .443l-1.145 1.143c-.121.436-.32.436-.443 0l-1.143-1.143c-.436-.123-.436-.322-.002-.443l1.145-1.145c.123-.436.322-.436.443 0l1.145 1.145zM244.289 206.45c.435.122.435.321 0 .443l-1.144 1.144c-.122.436-.321.436-.443 0l-1.144-1.144c-.437-.122-.437-.321-.001-.443l1.145-1.144c.122-.436.321-.436.443 0l1.144 1.144zM167.147 162.766c.436.122.436.321 0 .443l-1.144 1.144c-.122.436-.321.436-.442 0l-1.145-1.144c-.436-.122-.436-.321 0-.443l1.145-1.144c.121-.436.32-.436.442 0l1.144 1.144zM127.964 191.565c.435.122.435.321 0 .443l-1.145 1.143c-.121.436-.32.436-.443 0l-1.143-1.143c-.437-.123-.437-.322-.002-.443l1.145-1.145c.123-.436.322-.436.443 0l1.145 1.145zM318.733 190.163c.436.122.436.321 0 .443l-1.143 1.143c-.123.436-.322.436-.443 0l-1.145-1.143c-.436-.123-.436-.322 0-.443l1.145-1.145c.121-.436.32-.436.443 0l1.143 1.145zM277.462 153.011c.436.122.436.321 0 .443l-1.145 1.143c-.121.436-.32.436-.441 0l-1.145-1.143c-.436-.123-.436-.322-.002-.443l1.146-1.145c.121-.436.32-.436.441 0l1.146 1.145zM382.313 167.949c.436.122.436.321 0 .443l-1.143 1.143c-.123.436-.322.436-.443 0l-1.145-1.143c-.436-.122-.436-.322 0-.443l1.145-1.145c.121-.436.32-.436.443 0l1.143 1.145zM277.462 245.319c.436.122.436.321 0 .443l-1.145 1.143c-.121.436-.32.436-.441 0l-1.145-1.143c-.436-.123-.436-.322-.002-.443l1.146-1.145c.121-.436.32-.436.441 0l1.146 1.145zM302.13 180.934c.816.229.816.604-.002.833l-2.148 2.149c-.23.818-.604.818-.832 0L297 181.767c-.82-.229-.82-.604-.002-.833l2.15-2.15c.229-.818.602-.818.832 0l2.15 2.15zM287.757 209.28c.816.229.816.604-.002.833l-2.148 2.149c-.23.818-.604.818-.832 0l-2.15-2.149c-.818-.229-.818-.603 0-.833l2.15-2.149c.229-.819.602-.819.832 0l2.15 2.149zM174.114 196.331c.817.229.817.604-.001.833l-2.149 2.149c-.229.818-.604.818-.832 0l-2.148-2.149c-.819-.229-.819-.604-.002-.833l2.15-2.149c.229-.819.604-.819.832 0l2.15 2.149zM260.093 139.22c1.225-.689 1.662-.251.973.974v5.028c.689 1.226.252 1.665-.973.974h-5.029c-1.227.69-1.664.252-.975-.972v-5.03c-.689-1.225-.252-1.664.975-.974h5.029zM386.604 235.849c.818.229.818.604 0 .833l-2.148 2.149c-.23.818-.605.818-.834 0l-2.148-2.149c-.818-.229-.818-.604-.002-.833l2.15-2.15c.229-.819.604-.819.834 0l2.148 2.15zM374.771 212.46c.817.229.817.604-.001.833l-2.148 2.149c-.229.818-.604.818-.833 0l-2.148-2.149c-.819-.229-.819-.604-.002-.833l2.15-2.15c.229-.819.604-.819.833 0l2.149 2.15zM256.964 222.414c.818.229.818.604 0 .833l-2.148 2.149c-.23.818-.605.818-.834 0l-2.148-2.149c-.818-.229-.818-.604-.002-.833l2.15-2.149c.229-.819.604-.819.834 0l2.148 2.149zM331.896 202.921c.816.229.816.604-.002.833l-2.148 2.149c-.229.818-.604.818-.832 0l-2.148-2.149c-.82-.229-.82-.604-.002-.833l2.15-2.15c.229-.818.604-.818.832 0l2.15 2.15zM336.524 167.117c.816.229.816.604-.002.832l-2.148 2.149c-.229.818-.604.818-.832 0l-2.148-2.149c-.82-.229-.82-.603-.002-.832l2.15-2.15c.229-.819.604-.819.832 0l2.15 2.15zM149.521 177.754c.816.229.816.604-.002.833l-2.148 2.149c-.229.818-.604.818-.832 0l-2.149-2.149c-.819-.229-.819-.604-.001-.833l2.15-2.15c.229-.818.603-.818.832 0l2.15 2.15zM229.11 186.94c.816.229.816.604-.001.833l-2.149 2.149c-.229.818-.604.818-.832 0l-2.148-2.149c-.82-.229-.82-.604-.002-.833l2.15-2.149c.229-.819.604-.819.832 0l2.15 2.149z"/></g><path fill="#B7B7B7" d="M203.53 201.862h32.18v13.479h-32.18z"/><path fill="none" d="M328.274 93.625c8.822 2.783 18.881 16.58 7.537 22.738-11.344 6.159-17.553 10.991-15.197 26.905"/><path fill="#D3D3D3" d="M-2684.114 150.292a1.34 1.34 0 000-2.678h-6.211v-4.945h6.211a1.34 1.34 0 000-2.678h-6.211v-6.15a3.915 3.915 0 00-1.61-7.485 3.915 3.915 0 00-1.61 7.485v6.15h-6.15a1.338 1.338 0 100 2.678h6.15v4.945h-6.15a1.339 1.339 0 000 2.678h6.15v3.177c-.001 22.677-7.234 38.242-7.234 38.242v42.049h17.682v-42.05s-6.986-15.035-7.227-37.08v-4.339h6.21z"/><g><path fill="#D1D2D1" d="M186.455 156.8c-3.206-10.144-1.57-20.232 3.505-25.949.998-1.124-.348-1.97-1.613-1.632-13.054 4.589-20.193 18.75-15.993 32.039 4.194 13.268 18.136 20.75 31.438 17.046 2.062-.522 1.548-1.971-.091-2.419-7.243-1.979-14.117-9.185-17.246-19.085z"/></g></svg>