<svg xmlns="http://www.w3.org/2000/svg" width="204.59" height="34.65"><g fill="#FFF"><path d="M88.496.002h8.665v34.651h-8.665zM195.925.002v23.822h8.666V.002h-8.666zm0 34.651h8.666v-8.66h-8.666v8.66zM0 .002v8.665h8.662v25.986h8.663V8.667h8.664V.002zM182.906 0h-.002v.002h-8.566V0a8.666 8.666 0 00-8.666 8.664v.003h.003v25.986h8.663v-8.66h8.566v8.66h8.664V8.664A8.662 8.662 0 00182.906 0zm-8.568 17.326V8.667h8.566v8.659h-8.566zM45.309 0h-.002v.002h-8.565V0h-.003c-4.785 0-8.661 3.88-8.661 8.664v25.989h8.664v-8.66h8.567v8.66h8.662V8.664A8.664 8.664 0 0045.309 0zm-8.568 17.326V8.667h8.567v8.659h-8.567zM161.796 25.98V14.241h-13.064v6.498h4.401v5.241h-.004v.013h-8.591v-.013h-.001V8.667h14.876V.002h-14.875V0h-.001a8.662 8.662 0 00-8.662 8.664V25.985c0 4.774 3.866 8.652 8.639 8.662v.006h8.666v-.006a8.665 8.665 0 008.619-8.667h-.003zM84.331 8.664C84.331 3.88 80.452 0 75.669 0l-.003.002H58.345v34.651h8.661v-8.66h3.409l3.661 8.66h8.664l-3.92-9.27c3.22-1.263 5.506-4.389 5.511-8.058V8.664zm-8.663 8.647h-.002v.016h-8.66v-8.66h8.662v8.644zM123.339.002V20.75L110.409.002h-8.729v34.651h8.662V13.796l12.997 20.857h8.662V.002z"/></g></svg>