<?xml version="1.0" encoding="utf-8"?>
<!-- Generator: Adobe Illustrator 19.0.0, SVG Export Plug-In . SVG Version: 6.00 Build 0)  -->
<svg version="1.1" xmlns="http://www.w3.org/2000/svg" xmlns:xlink="http://www.w3.org/1999/xlink" x="0px" y="0px"
	 viewBox="0 0 1058.4 166.2" style="enable-background:new 0 0 1058.4 166.2;" xml:space="preserve">
<style type="text/css">
	.st0{fill:#17427F;}
	.st1{fill:#002B54;}
	.st2{fill:#003E6E;}
	.st3{fill:none;stroke:#002B54;stroke-width:1.706;stroke-linecap:round;stroke-linejoin:round;stroke-miterlimit:10;}
	.st4{clip-path:url(#SVGID_2_);}
	.st5{fill:#0060A2;}
	.st6{fill:#BFD730;}
	.st7{fill:#1A447D;}
	.st8{opacity:0.5;fill:#0060A2;}
	.st9{opacity:0.5;fill:#003E6E;}
	.st10{fill:none;}
	.st11{fill:#FFFFFF;}
	.st12{fill:#173660;}
	.st13{opacity:0.5;fill:#024099;}
	.st14{fill:#173F6D;}
	.st15{fill:#035EAA;}
	.st16{fill:#19518E;}
	.st17{opacity:0.5;fill:#173F6D;}
	.st18{fill:#013975;}
	.st19{fill:#005DAB;}
</style>
<g id="Guides_For_Artboard_1_">
</g>
<g id="Guides_For_Artboard">
</g>
<g id="FONDO">
</g>
<g id="LOGO">
</g>
<g id="Layer_2">
	<rect y="0" class="st0" width="1058.6" height="166.1"/>
	<g>
		<path class="st1" d="M662.1,30.5h-0.6c-3.1,0-5.6,2.5-5.6,5.6c0,3.1,2.5,5.6,5.6,5.6h0.6c3.1,0,5.6-2.5,5.6-5.6
			C667.8,33.1,665.2,30.5,662.1,30.5z"/>
		<path class="st1" d="M399.9,72h-0.6c-3.1,0-5.6,2.5-5.6,5.6c0,3.1,2.5,5.6,5.6,5.6h0.6c3.1,0,5.6-2.5,5.6-5.6
			C405.5,74.5,403,72,399.9,72z"/>
		<path class="st1" d="M650.2,47.6h-20.1c-1.5-0.4-2.6-1.5-2.6-2.8c0-1.6,1.7-2.9,3.8-2.9h6.4c0,0,0.1,0,0.1,0h8.8
			c3.1,0,5.7-2.5,5.7-5.7c0-3.1-2.5-5.7-5.7-5.7h-8.9H633h-27.7C586.7,15.8,563.2,7,537.6,7c-1.1,0-2.2,0-3.3,0.1h-74.5
			c-0.2,0-0.5-0.1-0.7-0.1h-13.6c-3.2,0-5.7,2.6-5.7,5.7c0,3.2,2.6,5.7,5.7,5.7H459c0.1,0,0.2,0,0.3,0h14.3c2.1,0,3.8,1.3,3.8,2.9
			c0,1.6-1.7,2.9-3.8,2.9h-4c0,0,0,0-0.1,0h-10c-3.2,0-5.7,2.6-5.7,5.7c0,3.1,2.6,5.7,5.7,5.7h4.1c-11,10.1-20,22.4-26.2,36.2h-17
			H416h-0.7c-3.1,0-5.7,2.5-5.7,5.7s2.5,5.7,5.7,5.7h0.6c0,0,0.1,0,0.1,0h6.4c2.1,0,3.8,1.3,3.8,2.9c0,1.3-1.1,2.4-2.6,2.8h-11.8
			c-3.1,0-5.7,2.5-5.7,5.7c0,3.1,2.5,5.7,5.7,5.7h17.5c-0.8,5.3-1.2,10.8-1.2,16.4c0,22.7,0.1,49.5,0.1,49.5h219.1
			c0,0,0-30.6,0-49.5c0-21.2-6-41-16.4-57.7h19.5c3.1,0,5.7-2.5,5.7-5.7C655.9,50.1,653.3,47.6,650.2,47.6z"/>
	</g>
	<path class="st2" d="M609.5,80.9c1,0,1.9-0.8,1.9-1.9c0-1-0.8-1.9-1.9-1.9h-8.8v-7h8.8c1,0,1.9-0.8,1.9-1.9c0-1-0.8-1.9-1.9-1.9
		h-8.8v-8.7c1.9-0.9,3.3-2.8,3.3-5c0-3-2.5-5.5-5.5-5.5c-3,0-5.5,2.5-5.5,5.5c0,2.2,1.3,4.2,3.3,5v8.7h-8.7c-1,0-1.9,0.8-1.9,1.9
		c0,1,0.8,1.9,1.9,1.9h8.7v7h-8.7c-1,0-1.9,0.8-1.9,1.9c0,1,0.8,1.9,1.9,1.9h8.7v4.5c0,32-10.2,53.9-10.2,53.9v26.4h24.9v-26.4
		c0,0-9.8-21.2-10.2-52.3v-6.1H609.5z"/>
	<path class="st0" d="M404.6,116H435c3.6,0,6.5,2.9,6.5,6.5l0,0c0,3.6-2.9,6.5-6.5,6.5h-30.4c-3.6,0-6.5-2.9-6.5-6.5l0,0
		C398.1,118.9,401,116,404.6,116z"/>
	<path class="st1" d="M635,89.6h30.4c3.6,0,6.5,2.9,6.5,6.5l0,0c0,3.6-2.9,6.5-6.5,6.5H635c-3.6,0-6.5-2.9-6.5-6.5l0,0
		C628.5,92.5,631.4,89.6,635,89.6z"/>
	<g>
		<path d="M504.3,86.4c0-4.6-3.6-8.4-8.2-8.5c-0.9-6.9-5.2-12.8-11.1-15.9v-2.5c0-4.4-2.4-5.7-4.6-5.7c-2,0-3.7,3.1-5.7,3.5
			c-2,0.4-4.7-1.8-6.6-1c-1.9,0.8-2.3,4.3-3.9,5.4c-1.7,1.1-5.1,0.2-6.5,1.6c-1.4,1.4-0.4,4.8-1.6,6.5c-1.1,1.7-4.6,2.1-5.4,3.9
			c-0.8,1.8,1.4,4.6,1,6.6c0,0.1-0.1,0.2-0.1,0.3c-1.2,0-3.5,0.3-4.3,1.9c-0.8,1.6,0.4,3.6,1.1,4.6c-1.2,0-3.5,0.3-4.3,1.9
			c-0.8,1.6,0.4,3.6,1.1,4.5c-1.2,0-3.5,0.3-4.3,1.9c-0.8,1.6,0.4,3.5,1.1,4.5c-1.2,0.1-3.4,0.4-4.2,1.9c-0.7,1.5,0.2,3.3,1,4.3
			c-1.2,0.1-3.3,0.4-4,1.9c-0.8,1.6,0.5,3.7,1.2,4.6l0,0c-1.2,0.1-3.3,0.4-4.1,1.9c-0.7,1.5,0.3,3.4,1,4.4l-2.1,4.4l14.9-3.4v32.6
			h33.8v-40.2l0,0v-11.2c4.4-0.9,8.4-3.1,11.3-6.3l5.6,0l0,0C500.7,94.5,504.2,90.8,504.3,86.4z"/>
		<path class="st1" d="M505.1,84.5h-24.5c-1.1,0-1.9,0.9-1.9,1.9l0,0c0,1.1,0.9,1.9,1.9,1.9H507c0-1.4,0-0.9,0-1.9l0,0
			C507,85.4,506.2,84.5,505.1,84.5z"/>
		<path class="st3" d="M480.6,101.6c-0.2,0-0.3,0-0.5,0.1c-4.6,0.6-9.1-0.8-12.5-3.4"/>
		<path class="st3" d="M491.7,66.3c-0.1-0.1-0.2-0.3-0.3-0.4c-3.1-3.5-7.3-5.5-11.6-5.8"/>
		<g>
			<defs>
				<rect id="SVGID_1_" x="477.7" y="84.5" width="26.2" height="2.4"/>
			</defs>
			<clipPath id="SVGID_2_">
				<use xlink:href="#SVGID_1_"  style="overflow:visible;"/>
			</clipPath>
			<g class="st4">
				<path class="st5" d="M486.2,84.6l1,1.6c0.2,0.3,0.6,0.3,0.8,0l1-1.6c0.2-0.3,0-0.7-0.4-0.7h-2C486.2,83.9,486,84.3,486.2,84.6z"
					/>
				<path class="st5" d="M489,84.6l1,1.6c0.2,0.3,0.6,0.3,0.8,0l1-1.6c0.2-0.3,0-0.7-0.4-0.7h-2C489,83.9,488.8,84.3,489,84.6z"/>
				<path class="st5" d="M480.7,84.6l1,1.6c0.2,0.3,0.6,0.3,0.8,0l1-1.6c0.2-0.3,0-0.7-0.4-0.7h-2C480.7,83.9,480.5,84.3,480.7,84.6
					z"/>
				<path class="st5" d="M483.4,84.6l1,1.6c0.2,0.3,0.6,0.3,0.8,0l1-1.6c0.2-0.3,0-0.7-0.4-0.7h-2C483.5,83.9,483.2,84.3,483.4,84.6
					z"/>
				<path class="st5" d="M491.8,84.6l1,1.6c0.2,0.3,0.6,0.3,0.8,0l1-1.6c0.2-0.3,0-0.7-0.4-0.7h-2C491.8,83.9,491.6,84.3,491.8,84.6
					z"/>
				<path class="st5" d="M494.5,84.6l1,1.6c0.2,0.3,0.6,0.3,0.8,0l1-1.6c0.2-0.3,0-0.7-0.4-0.7h-2C494.5,83.9,494.3,84.3,494.5,84.6
					z"/>
				<path class="st5" d="M497.3,84.6l1,1.6c0.2,0.3,0.6,0.3,0.8,0l1-1.6c0.2-0.3,0-0.7-0.4-0.7h-2C497.3,83.9,497.1,84.3,497.3,84.6
					z"/>
				<path class="st5" d="M500,84.6l1,1.6c0.2,0.3,0.6,0.3,0.8,0l1-1.6c0.2-0.3,0-0.7-0.4-0.7h-2C500.1,83.9,499.8,84.3,500,84.6z"/>
			</g>
		</g>
		<circle class="st6" cx="473.1" cy="74.2" r="3.6"/>
		<circle class="st6" cx="494" cy="74.2" r="3.6"/>
	</g>
	<polygon class="st2" points="508.6,166.1 534.6,166.1 534.6,99.9 477.7,99.9 477.7,129.5 507.5,129.5 	"/>
	<g>
		<rect x="486.8" y="103.4" class="st1" width="3" height="46.3"/>
		<rect x="481.6" y="103.4" class="st1" width="3" height="46.3"/>
		<rect x="491.9" y="103.4" class="st1" width="3" height="46.3"/>
		<rect x="497" y="103.4" class="st1" width="3" height="46.3"/>
		<rect x="502.1" y="103.4" class="st1" width="3" height="46.3"/>
		<polygon class="st1" points="510.2,161.7 507.2,160.3 507.2,103.4 510.2,103.4 		"/>
		<polygon class="st1" points="515.3,164.2 512.3,162.8 512.3,103.4 515.3,103.4 		"/>
		<rect x="517.4" y="103.4" class="st1" width="3" height="25.8"/>
		<rect x="522.5" y="103.4" class="st1" width="3" height="25.8"/>
		<rect x="527.7" y="103.4" class="st1" width="3" height="25.8"/>
	</g>
	<rect x="550.6" y="142" class="st5" width="19.6" height="8.3"/>
	<g>
		<rect x="613.9" y="122.3" class="st1" width="20.1" height="3"/>
		<rect x="613.9" y="128" class="st1" width="20.1" height="3"/>
		<rect x="613.9" y="133.7" class="st1" width="20.1" height="3"/>
		<rect x="613.9" y="139.4" class="st1" width="20.1" height="3"/>
		<rect x="613.9" y="145.1" class="st1" width="20.1" height="3"/>
		<rect x="613.9" y="150.8" class="st1" width="20.1" height="3"/>
	</g>
	<path class="st5" d="M649,139.1h-28.8c-2.9,0-5.2,2.3-5.2,5.2c0,2.9,2.3,5.2,5.2,5.2h9.2c0,0,0,0,0.1,0h3.6c1.9,0,3.5,1.2,3.5,2.7
		c0,1.5-1.6,2.7-3.5,2.7H620c-0.1,0-0.2,0-0.3,0h-12.5c-2.9,0-5.2,2.3-5.2,5.2c0,2.9,2.3,5.2,5.2,5.2h12.5c0.2,0,0.5,0,0.7,0h33.2
		l-4.3-26.3C649.2,139.1,649.1,139.1,649,139.1z"/>
	<path class="st7" d="M664.5,109c0,3.6-2.9,6.5-6.5,6.5h-27.1c-3.6,0-6.5-2.9-6.5-6.5l0,0c0-3.6,2.9-6.5,6.5-6.5H658
		C661.6,102.5,664.5,105.4,664.5,109L664.5,109z"/>
	<rect x="520.2" y="133.3" class="st1" width="35.7" height="3"/>
	<rect x="520.2" y="139" class="st1" width="35.7" height="3"/>
	<rect x="520.2" y="144.7" class="st1" width="30.4" height="3"/>
	<rect x="520.2" y="150.3" class="st1" width="33.6" height="3"/>
	<rect x="520.2" y="156" class="st1" width="33.6" height="3"/>
	<rect x="520.2" y="161.7" class="st1" width="33.6" height="3"/>
	<g>
		<rect x="440.2" y="133.3" class="st1" width="33" height="3"/>
		<rect x="440.2" y="139" class="st1" width="33" height="3"/>
		<rect x="440.2" y="144.7" class="st1" width="33" height="3"/>
		<rect x="440.2" y="150.3" class="st1" width="33" height="3"/>
		<rect x="440.2" y="156" class="st1" width="33" height="3"/>
		<rect x="440.2" y="161.7" class="st1" width="33" height="3"/>
	</g>
	<rect x="530.6" y="124.5" class="st2" width="9.6" height="4.7"/>
	<path class="st5" d="M530.6,32.6c0.5,0.1,0.5,0.3,0,0.5l-1.2,1.2c-0.1,0.5-0.3,0.5-0.5,0l-1.2-1.2c-0.5-0.1-0.5-0.3,0-0.5l1.2-1.2
		c0.1-0.5,0.3-0.5,0.5,0L530.6,32.6z"/>
	<path class="st5" d="M530,31.6c0.4-0.2,0.6-0.1,0.3,0.3l0,1.7c0.2,0.4,0.1,0.6-0.3,0.3h-1.7c-0.4,0.2-0.6,0.1-0.3-0.3v-1.7
		c-0.2-0.4-0.1-0.6,0.3-0.3L530,31.6z"/>
	<path class="st8" d="M545.3,36.6c0.5,0.1,0.5,0.3,0,0.5l-1.2,1.2c-0.1,0.5-0.3,0.5-0.5,0l-1.2-1.2c-0.5-0.1-0.5-0.3,0-0.5l1.2-1.2
		c0.1-0.5,0.3-0.5,0.5,0L545.3,36.6z"/>
	<path class="st5" d="M513.9,52.2c0.5,0.1,0.5,0.3,0,0.5l-1.2,1.2c-0.1,0.5-0.3,0.5-0.5,0l-1.2-1.2c-0.5-0.1-0.5-0.3,0-0.5l1.2-1.2
		c0.1-0.5,0.3-0.5,0.5,0L513.9,52.2z"/>
	<path class="st5" d="M497.8,18.9c0.5,0.1,0.5,0.3,0,0.5l-1.2,1.2c-0.1,0.5-0.3,0.5-0.5,0l-1.2-1.2c-0.5-0.1-0.5-0.3,0-0.5l1.2-1.2
		c0.1-0.5,0.3-0.5,0.5,0L497.8,18.9z"/>
	<path class="st8" d="M539.1,46.3c0.2,0.1,0.2,0.2,0,0.3l-0.7,0.6c-0.1,0.2-0.2,0.2-0.3,0l-0.7-0.6c-0.2-0.1-0.2-0.2,0-0.3l0.7-0.7
		c0.1-0.2,0.2-0.2,0.3,0L539.1,46.3z"/>
	<path class="st8" d="M556.6,44.6c0.2,0.1,0.2,0.2,0,0.3l-0.7,0.7c-0.1,0.2-0.2,0.2-0.3,0l-0.7-0.7c-0.2-0.1-0.2-0.2,0-0.3l0.7-0.7
		c0.1-0.2,0.2-0.2,0.3,0L556.6,44.6z"/>
	<path class="st8" d="M535.5,57.2c0.2,0.1,0.2,0.2,0,0.3l-0.7,0.7c-0.1,0.2-0.2,0.2-0.3,0l-0.7-0.7c-0.2-0.1-0.2-0.2,0-0.3l0.7-0.7
		c0.1-0.2,0.2-0.2,0.3,0L535.5,57.2z"/>
	<path class="st8" d="M491.6,32.4c0.2,0.1,0.2,0.2,0,0.3l-0.7,0.7c-0.1,0.2-0.2,0.2-0.3,0l-0.7-0.7c-0.2-0.1-0.2-0.2,0-0.3l0.7-0.7
		c0.1-0.2,0.2-0.2,0.3,0L491.6,32.4z"/>
	<path class="st8" d="M469.3,48.8c0.2,0.1,0.2,0.2,0,0.3l-0.7,0.7c-0.1,0.2-0.2,0.2-0.3,0l-0.7-0.7c-0.2-0.1-0.2-0.2,0-0.3l0.7-0.7
		c0.1-0.2,0.2-0.2,0.3,0L469.3,48.8z"/>
	<path class="st8" d="M577.8,48c0.2,0.1,0.2,0.2,0,0.3l-0.7,0.7c-0.1,0.2-0.2,0.2-0.3,0l-0.7-0.7c-0.2-0.1-0.2-0.2,0-0.3l0.7-0.7
		c0.1-0.2,0.2-0.2,0.3,0L577.8,48z"/>
	<path class="st8" d="M554.4,26.8c0.2,0.1,0.2,0.2,0,0.3l-0.7,0.6c-0.1,0.2-0.2,0.2-0.3,0l-0.7-0.6c-0.2-0.1-0.2-0.2,0-0.3l0.7-0.7
		c0.1-0.2,0.2-0.2,0.3,0L554.4,26.8z"/>
	<path class="st8" d="M600.9,41c0.2,0.1,0.2,0.2,0,0.3l-0.7,0.6c-0.1,0.2-0.2,0.2-0.3,0l-0.7-0.6c-0.2-0.1-0.2-0.2,0-0.3l0.7-0.7
		c0.1-0.2,0.2-0.2,0.3,0L600.9,41z"/>
	<path class="st8" d="M573,58.1c0.2,0.1,0.2,0.2,0,0.3l-0.7,0.7c-0.1,0.2-0.2,0.2-0.3,0l-0.7-0.7c-0.2-0.1-0.2-0.2,0-0.3l0.7-0.7
		c0.1-0.2,0.2-0.2,0.3,0L573,58.1z"/>
	<path class="st8" d="M554.4,79.3c0.2,0.1,0.2,0.2,0,0.3l-0.7,0.7c-0.1,0.2-0.2,0.2-0.3,0l-0.7-0.7c-0.2-0.1-0.2-0.2,0-0.3l0.7-0.7
		c0.1-0.2,0.2-0.2,0.3,0L554.4,79.3z"/>
	<path class="st8" d="M568.4,42.7c0.5,0.1,0.5,0.3,0,0.5l-1.2,1.2c-0.1,0.5-0.3,0.5-0.5,0l-1.2-1.2c-0.5-0.1-0.5-0.3,0-0.5l1.2-1.2
		c0.1-0.5,0.3-0.5,0.5,0L568.4,42.7z"/>
	<path class="st9" d="M560.2,58.8c0.5,0.1,0.5,0.3,0,0.5l-1.2,1.2c-0.1,0.5-0.3,0.5-0.5,0l-1.2-1.2c-0.5-0.1-0.5-0.3,0-0.5l1.2-1.2
		c0.1-0.5,0.3-0.5,0.5,0L560.2,58.8z"/>
	<path class="st9" d="M495.6,51.5c0.5,0.1,0.5,0.3,0,0.5l-1.2,1.2c-0.1,0.5-0.3,0.5-0.5,0l-1.2-1.2c-0.5-0.1-0.5-0.3,0-0.5l1.2-1.2
		c0.1-0.5,0.3-0.5,0.5,0L495.6,51.5z"/>
	<path class="st5" d="M545.5,20.6c0.8,0.2,0.8,0.6,0,0.8l-2,2c-0.2,0.8-0.6,0.8-0.8,0l-2-2c-0.8-0.2-0.8-0.6,0-0.8l2-2
		c0.2-0.8,0.6-0.8,0.8,0L545.5,20.6z"/>
	<path class="st5" d="M554.1,98.5c0.7-0.4,0.9-0.1,0.6,0.6v2.9c0.4,0.7,0.1,0.9-0.6,0.6h-2.9c-0.7,0.4-0.9,0.1-0.6-0.6l0-2.9
		c-0.4-0.7-0.1-0.9,0.6-0.6L554.1,98.5z"/>
	<path class="st9" d="M625,73.1c0.5,0.1,0.5,0.3,0,0.5l-1.2,1.2c-0.1,0.5-0.3,0.5-0.5,0l-1.2-1.2c-0.5-0.1-0.5-0.3,0-0.5l1.2-1.2
		c0.1-0.5,0.3-0.5,0.5,0L625,73.1z"/>
	<path class="st8" d="M588,53.5c0.5,0.1,0.5,0.3,0,0.5l-1.2,1.2c-0.1,0.5-0.3,0.5-0.5,0l-1.2-1.2c-0.5-0.1-0.5-0.3,0-0.5l1.2-1.2
		c0.1-0.5,0.3-0.5,0.5,0L588,53.5z"/>
	<path class="st9" d="M527.2,75.8c0.5,0.1,0.5,0.3,0,0.5l-1.2,1.2c-0.1,0.5-0.3,0.5-0.5,0l-1.2-1.2c-0.5-0.1-0.5-0.3,0-0.5l1.2-1.2
		c0.1-0.5,0.3-0.5,0.5,0L527.2,75.8z"/>
	<path class="st9" d="M542.7,66.3c0.5,0.1,0.5,0.3,0,0.5l-1.2,1.2c-0.1,0.5-0.3,0.5-0.5,0l-1.2-1.2c-0.5-0.1-0.5-0.3,0-0.5l1.2-1.2
		c0.1-0.5,0.3-0.5,0.5,0L542.7,66.3z"/>
	<path class="st9" d="M508.7,65.7c0.5,0.1,0.5,0.3,0,0.5l-1.2,1.2c-0.1,0.5-0.3,0.5-0.5,0l-1.2-1.2c-0.5-0.1-0.5-0.3,0-0.5l1.2-1.2
		c0.1-0.5,0.3-0.5,0.5,0L508.7,65.7z"/>
	<path class="st9" d="M577.2,70.6c0.5,0.1,0.5,0.3,0,0.5l-1.2,1.2c-0.1,0.5-0.3,0.5-0.5,0l-1.2-1.2c-0.5-0.1-0.5-0.3,0-0.5l1.2-1.2
		c0.1-0.5,0.3-0.5,0.5,0L577.2,70.6z"/>
	<path class="st5" d="M619.7,93.8c0.5,0.1,0.5,0.3,0,0.5l-1.2,1.2c-0.1,0.5-0.3,0.5-0.5,0l-1.2-1.2c-0.5-0.1-0.5-0.3,0-0.5l1.2-1.2
		c0.1-0.5,0.3-0.5,0.5,0L619.7,93.8z"/>
	<path class="st8" d="M481.6,40.9c0.5,0.1,0.5,0.3,0,0.5l-1.2,1.2c-0.1,0.5-0.3,0.5-0.5,0l-1.2-1.2c-0.5-0.1-0.5-0.3,0-0.5l1.2-1.2
		c0.1-0.5,0.3-0.5,0.5,0L481.6,40.9z"/>
	<path class="st9" d="M526.9,46.1c0.5,0.1,0.5,0.3,0,0.5l-1.2,1.2c-0.1,0.5-0.3,0.5-0.5,0l-1.2-1.2c-0.5-0.1-0.5-0.3,0-0.5l1.2-1.2
		c0.1-0.5,0.3-0.5,0.5,0L526.9,46.1z"/>
	<rect x="512.3" y="92.2" class="st2" width="18.3" height="7.7"/>
	<path class="st10" d="M583.3,5.1c5,1.6,10.7,9.4,4.3,12.9c-6.5,3.5-10,6.3-8.6,15.3"/>
	<path class="st11" d="M651.9,106.4"/>
	<path class="st12" d="M341.4,8.6c-0.3,0.1-0.3,0.2,0,0.3l0.9,0.9c0.1,0.3,0.2,0.3,0.3,0l0.9-0.9c0.3-0.1,0.3-0.2,0-0.3l-0.9-0.9
		c-0.1-0.3-0.2-0.3-0.3,0L341.4,8.6z"/>
	<path class="st13" d="M118.4,27.6c-0.4,0.1-0.4,0.3,0,0.4l1.1,1.1c0.1,0.4,0.3,0.4,0.4,0l1.1-1.1c0.4-0.1,0.4-0.3,0-0.4l-1.1-1.1
		c-0.1-0.4-0.3-0.4-0.4,0L118.4,27.6z"/>
	<path class="st13" d="M203.3,21.2c-0.4,0.1-0.4,0.3,0,0.4l1.1,1.1c0.1,0.4,0.3,0.4,0.4,0l1.1-1.1c0.4-0.1,0.4-0.3,0-0.4l-1.1-1.1
		c-0.1-0.4-0.3-0.4-0.4,0L203.3,21.2z"/>
	<path class="st13" d="M295.7,28.3c-0.4,0.1-0.4,0.3,0,0.4l1.1,1.1c0.1,0.4,0.3,0.4,0.4,0l1.1-1.1c0.4-0.1,0.4-0.3,0-0.4l-1.1-1.1
		c-0.1-0.4-0.3-0.4-0.4,0L295.7,28.3z"/>
	<path class="st12" d="M862.2,98.8c-0.4,0-0.7-0.3-0.7-0.7c0-0.4,0.3-0.7,0.7-0.7h3.4v-2.7h-3.4c-0.4,0-0.7-0.3-0.7-0.7
		c0-0.4,0.3-0.7,0.7-0.7h3.4v-3.3c-0.7-0.3-1.2-1.1-1.2-1.9c0-1.2,0.9-2.1,2.1-2.1c1.2,0,2.1,0.9,2.1,2.1c0,0.9-0.5,1.6-1.2,1.9v3.3
		h3.3c0.4,0,0.7,0.3,0.7,0.7c0,0.4-0.3,0.7-0.7,0.7h-3.3v2.7h3.3c0.4,0,0.7,0.3,0.7,0.7c0,0.4-0.3,0.7-0.7,0.7h-3.3v1.7
		c0,12.3,3.9,20.7,3.9,20.7v10.1h-9.6v-10.1c0,0,3.8-8.1,3.9-20.1v-2.3H862.2z"/>
	<rect x="618.3" y="131.7" class="st14" width="32" height="34.4"/>
	<polygon class="st14" points="761.9,166.3 732.1,166.3 732.1,121.3 797.3,121.3 797.6,166.3 763.4,166.3 	"/>
	<g>
		<rect x="783.5" y="126.6" class="st15" width="3.4" height="39.7"/>
		<rect x="789.3" y="126.6" class="st15" width="3.4" height="39.7"/>
		<rect x="777.6" y="126.6" class="st15" width="3.4" height="39.7"/>
		<rect x="771.8" y="126.6" class="st15" width="3.4" height="39.7"/>
		<rect x="765.9" y="126.6" class="st15" width="3.4" height="39.7"/>
		<rect x="760.1" y="126.6" class="st15" width="3.4" height="39.7"/>
		<polygon class="st15" points="754.2,166.3 757.6,166.2 757.6,126.6 754.2,126.6 		"/>
		<rect x="748.4" y="126.6" class="st15" width="3.4" height="26.8"/>
		<rect x="742.5" y="126.6" class="st15" width="3.4" height="26.8"/>
		<rect x="736.7" y="126.6" class="st15" width="3.4" height="26.8"/>
	</g>
	<rect x="652.8" y="124.2" class="st14" width="66.8" height="42"/>
	<rect x="826.4" y="125.5" class="st7" width="62.1" height="40.6"/>
	<rect x="643.3" y="147.9" class="st15" width="32.8" height="18.5"/>
	<rect x="723" y="116.7" class="st16" width="6.2" height="24.9"/>
	<g>
		<rect x="618.3" y="136.5" class="st15" width="23" height="3.5"/>
		<rect x="618.3" y="143.1" class="st15" width="23" height="3.5"/>
		<rect x="618.3" y="149.6" class="st15" width="23" height="3.5"/>
		<rect x="618.3" y="156.1" class="st15" width="23" height="3.5"/>
	</g>
	<g>
		<g>
			<path class="st15" d="M244.8,62.6c-1.8-6.7-0.5-13.2,2.9-16.7c0.7-0.7-0.2-1.3-1-1.1c-8.6,2.6-13.6,11.6-11.2,20.4
				c2.4,8.7,11.2,13.9,19.9,11.9c1.4-0.3,1.1-1.2,0-1.6C250.8,74,246.6,69.1,244.8,62.6z"/>
		</g>
	</g>
	<g>
		<polygon class="st16" points="828.8,115.9 782.7,136.3 782.8,166.5 828.8,166.5 		"/>
		<rect x="815" y="146.8" class="st14" width="3.5" height="3.5"/>
		<rect x="809.1" y="139.5" class="st14" width="3.5" height="3.5"/>
		<rect x="814.8" y="133.3" class="st14" width="3.5" height="3.5"/>
		<rect x="819.8" y="128.1" class="st14" width="3.5" height="3.5"/>
		<rect x="796.5" y="146.8" class="st14" width="3.5" height="3.5"/>
		<rect x="787.3" y="139.5" class="st14" width="3.5" height="3.5"/>
	</g>
	<g>
		<rect x="833.3" y="134.6" class="st15" width="37.8" height="3.5"/>
		<rect x="833.3" y="141.1" class="st15" width="37.8" height="3.5"/>
		<rect x="833.3" y="147.6" class="st15" width="37.8" height="3.5"/>
		<rect x="833.3" y="154.1" class="st15" width="37.8" height="3.5"/>
	</g>
	<rect x="564.6" y="123.6" class="st12" width="54.5" height="42.7"/>
	<g>
		<rect x="576.6" y="140.3" class="st15" width="37.8" height="3.5"/>
		<rect x="576.6" y="146.8" class="st15" width="37.8" height="3.5"/>
		<rect x="576.6" y="153.3" class="st15" width="37.8" height="3.5"/>
		<rect x="576.6" y="159.8" class="st15" width="37.8" height="3.5"/>
	</g>
	<path class="st13" d="M749.2,22.3c-0.8,0.2-0.8,0.6,0,0.8l2.1,2.2c0.2,0.8,0.6,0.8,0.8,0l2.1-2.2c0.8-0.2,0.8-0.6,0-0.8l-2.2-2.1
		c-0.2-0.8-0.6-0.8-0.8,0L749.2,22.3z"/>
	<path class="st12" d="M663.2,74c-0.6,0.2-0.6,0.4,0,0.6l1.5,1.5c0.2,0.6,0.4,0.6,0.6,0l1.5-1.5c0.6-0.2,0.6-0.4,0-0.6l-1.5-1.5
		c-0.2-0.6-0.4-0.6-0.6,0L663.2,74z"/>
	<path class="st12" d="M480.9,22.5c-0.4,0.1-0.4,0.3,0,0.4l1,1c0.1,0.4,0.3,0.4,0.4,0l1-1c0.4-0.1,0.4-0.3,0-0.4l-1-1
		c-0.1-0.4-0.3-0.4-0.4,0L480.9,22.5z"/>
	<path class="st12" d="M711.4,36.6c-0.8,0.2-0.8,0.6,0,0.8l2.1,2.1c0.2,0.8,0.6,0.8,0.8,0l2.2-2.1c0.8-0.2,0.8-0.6,0-0.8l-2.2-2.2
		c-0.2-0.8-0.6-0.8-0.8,0L711.4,36.6z"/>
	<path class="st13" d="M291.7,78.2c-0.4,0.1-0.4,0.3,0,0.4l1.1,1.1c0.1,0.4,0.3,0.4,0.4,0l1.1-1.1c0.4-0.1,0.4-0.3,0-0.4l-1.1-1.1
		c-0.1-0.4-0.3-0.4-0.4,0L291.7,78.2z"/>
	<path class="st13" d="M429.2,17.6c-0.4,0.1-0.4,0.3,0,0.4l1.1,1.1c0.1,0.4,0.3,0.4,0.4,0L432,18c0.4-0.1,0.4-0.3,0-0.4l-1.1-1.1
		c-0.1-0.4-0.3-0.4-0.4,0L429.2,17.6z"/>
	<path class="st13" d="M471.7,60c-0.4,0.1-0.4,0.3,0,0.4l1.1,1.1c0.1,0.4,0.3,0.4,0.4,0l1.1-1.1c0.4-0.1,0.4-0.3,0-0.4l-1.1-1.1
		c-0.1-0.4-0.3-0.4-0.4,0L471.7,60z"/>
	<path class="st13" d="M799.2,39.6c-0.4,0.1-0.4,0.3,0,0.4l1.1,1.1c0.1,0.4,0.3,0.4,0.4,0l1.1-1.1c0.4-0.1,0.4-0.3,0-0.4l-1.1-1.1
		c-0.1-0.4-0.3-0.4-0.4,0L799.2,39.6z"/>
	<path class="st13" d="M752.1,44.5c-0.4,0.1-0.4,0.3,0,0.4l1.1,1.1c0.1,0.4,0.3,0.4,0.4,0l1.1-1.1c0.4-0.1,0.4-0.3,0-0.4l-1.1-1.1
		c-0.1-0.4-0.3-0.4-0.4,0L752.1,44.5z"/>
	<path class="st13" d="M673.2,27.6c-0.4,0.1-0.4,0.3,0,0.4l1.1,1.1c0.1,0.4,0.3,0.4,0.4,0l1.1-1.1c0.4-0.1,0.4-0.3,0-0.4l-1.1-1.1
		c-0.1-0.4-0.3-0.4-0.4,0L673.2,27.6z"/>
	<path class="st13" d="M374.2,46.2c-0.4,0.1-0.4,0.3,0,0.4l1.1,1.1c0.1,0.4,0.3,0.4,0.4,0l1.1-1.1c0.4-0.1,0.4-0.3,0-0.4l-1.1-1.1
		c-0.1-0.4-0.3-0.4-0.4,0L374.2,46.2z"/>
	<path class="st13" d="M529.5,34.4c-0.4,0.1-0.4,0.3,0,0.4l1.1,1.1c0.1,0.4,0.3,0.4,0.4,0l1.1-1.1c0.4-0.1,0.4-0.3,0-0.4l-1.1-1.1
		c-0.1-0.4-0.3-0.4-0.4,0L529.5,34.4z"/>
	<path class="st17" d="M553.7,133.7c-0.5,0.1-0.5,0.4,0,0.5l1.4,1.4c0.1,0.5,0.4,0.5,0.5,0l1.4-1.4c0.5-0.1,0.5-0.4,0-0.5l-1.4-1.4
		c-0.1-0.5-0.4-0.5-0.5,0L553.7,133.7z"/>
	<path class="st12" d="M328.3,74.5c-0.8-0.4-1-0.2-0.6,0.6v3.1c-0.4,0.8-0.2,1,0.6,0.6h3.1c0.8,0.4,1,0.2,0.6-0.6l0-3.1
		c0.4-0.8,0.2-1-0.6-0.6L328.3,74.5z"/>
	<path class="st17" d="M585.2,27.5c-0.8,0.2-0.8,0.6,0,0.8l2.1,2.1c0.2,0.8,0.6,0.8,0.8,0l2.1-2.1c0.8-0.2,0.8-0.6,0-0.8l-2.2-2.2
		c-0.2-0.8-0.6-0.8-0.8,0L585.2,27.5z"/>
	<path class="st17" d="M627.6,55.6c-0.8,0.2-0.8,0.6,0,0.8l2.1,2.1c0.2,0.8,0.6,0.8,0.8,0l2.1-2.1c0.8-0.2,0.8-0.6,0-0.8l-2.2-2.1
		c-0.2-0.8-0.6-0.8-0.8,0L627.6,55.6z"/>
	<path class="st11" d="M342.4,59.2"/>
	<rect x="679.4" y="127.4" class="st15" width="2.2" height="4.7"/>
	<rect x="663" y="138.7" class="st15" width="2.2" height="4.7"/>
	<rect x="671.8" y="138.7" class="st15" width="2.2" height="4.7"/>
	<rect x="687.6" y="138.7" class="st15" width="2.2" height="4.7"/>
	<rect x="696.4" y="138.7" class="st15" width="2.2" height="4.7"/>
	<rect x="687.6" y="149.4" class="st15" width="2.2" height="4.7"/>
	<rect x="696.4" y="149.4" class="st15" width="2.2" height="4.7"/>
	<rect x="687.6" y="159.8" class="st15" width="2.2" height="4.7"/>
	<rect x="696.4" y="159.8" class="st15" width="2.2" height="4.7"/>
	<rect x="687.6" y="127.4" class="st15" width="2.2" height="4.7"/>
	<rect x="696.4" y="127.4" class="st15" width="2.2" height="4.7"/>
	<rect x="648.7" y="151.4" class="st16" width="4.8" height="4.7"/>
	<rect x="648.7" y="160.2" class="st16" width="4.8" height="4.7"/>
	<rect x="659.7" y="151.4" class="st16" width="4.8" height="4.7"/>
	<rect x="659.7" y="160.2" class="st16" width="4.8" height="4.7"/>
	<rect x="663" y="127.4" class="st15" width="2.2" height="4.7"/>
	<rect x="780.5" y="159.8" class="st15" width="42.9" height="6.6"/>
	<g>
		<g>
			<path class="st16" d="M832.2,56.1c0-6-16.5-19.1-48.2-19.1c-28.7,0-34.8,12.2-34.8,19.1s6.2,19.1,34.8,19.1
				C815.8,75.2,832.2,62,832.2,56.1z"/>
			<path class="st16" d="M813.3,42.2c0,0,8.5-2.7,12.5-1.7c4,1,0,9.9,0,9.9L813.3,42.2z"/>
			<path class="st16" d="M813.3,70.3c0,0,8.5,2.7,12.5,1.7c4-1,0-9.9,0-9.9L813.3,70.3z"/>
		</g>
		<path class="st16" d="M783.1,76.8c0,2.9-2.3,5.2-5.2,5.2h-12.2c-2.9,0-5.2-2.3-5.2-5.2v-9.1c0-2.9,2.3-5.2,5.2-5.2h8.6
			c2.9,0,8.8,2.3,8.8,5.2V76.8z"/>
		<circle class="st15" cx="765.1" cy="76.4" r="2"/>
		<circle class="st15" cx="771.5" cy="76.4" r="2"/>
		<circle class="st15" cx="777.7" cy="76.4" r="2"/>
		<circle class="st18" cx="785.3" cy="55.6" r="13.8"/>
		<g>
			<path class="st19" d="M788.8,49.9v8.5h3.4v-8.5H788.8z M788.8,63.4h3.4V60h-3.4V63.4z"/>
			<polygon class="st19" points="777.2,49.9 777.2,53.2 780.6,53.2 780.6,63.4 784,63.4 784,53.2 787.3,53.2 787.3,49.9 			"/>
		</g>
	</g>
	<rect x="704.9" y="133.4" class="st15" width="52.7" height="33"/>
	<rect x="718.7" y="139.4" class="st7" width="31.5" height="3.5"/>
	<rect x="715.4" y="145.9" class="st7" width="34.8" height="3.5"/>
	<rect x="715.4" y="152.4" class="st7" width="34.8" height="3.5"/>
	<rect x="715.4" y="158.7" class="st7" width="34.8" height="3.5"/>
	<rect x="936.6" y="126.8" class="st19" width="26.5" height="39.4"/>
	<polygon class="st14" points="553.8,166.5 570.9,166.5 570.9,119.6 533.5,119.6 533.5,166.1 553.1,166.2 	"/>
	<g>
		<rect x="540.8" y="160.1" class="st7" width="25" height="3.4"/>
		<rect x="540.8" y="154.3" class="st7" width="25" height="3.4"/>
		<polygon class="st7" points="565.5,148.4 565.1,151.8 540.8,151.8 540.8,148.4 		"/>
		<polygon class="st7" points="565.7,142.5 564.8,145.9 540.8,145.9 540.8,142.5 		"/>
		<rect x="540.8" y="136.7" class="st7" width="15.7" height="3.4"/>
		<rect x="540.8" y="130.8" class="st7" width="15.7" height="3.4"/>
		<rect x="540.8" y="125" class="st7" width="15.7" height="3.4"/>
	</g>
	<rect x="969.7" y="121.8" class="st12" width="60.7" height="44.4"/>
	<rect x="1021.9" y="129.7" class="st15" width="36.6" height="36.5"/>
	<rect x="1003.9" y="131.4" class="st19" width="9.4" height="34.9"/>
	<g>
		<rect x="936.5" y="132.9" class="st7" width="23" height="3.5"/>
		<rect x="936.5" y="139.4" class="st7" width="23" height="3.5"/>
		<rect x="936.5" y="145.9" class="st7" width="23" height="3.5"/>
		<rect x="936.5" y="152.5" class="st7" width="23" height="3.5"/>
		<rect x="936.5" y="159" class="st7" width="23" height="3.5"/>
	</g>
	<rect x="1034.8" y="135.8" class="st7" width="23.5" height="3.5"/>
	<rect x="1032.4" y="142.3" class="st7" width="26" height="3.5"/>
	<rect x="1032.4" y="148.8" class="st7" width="26" height="3.5"/>
	<rect x="1032.4" y="155" class="st7" width="26" height="3.5"/>
	<rect x="882.8" y="123.3" class="st12" width="54.5" height="42.8"/>
	<g>
		<rect x="894.8" y="139.3" class="st15" width="37.8" height="3.5"/>
		<rect x="894.8" y="145.8" class="st15" width="37.8" height="3.5"/>
		<rect x="894.8" y="152.3" class="st15" width="37.8" height="3.5"/>
		<rect x="894.8" y="158.8" class="st15" width="37.8" height="3.5"/>
	</g>
	<path class="st12" d="M168.5,66.6c0.8,0.2,0.8,0.6,0,0.8l-2.1,2.1c-0.2,0.8-0.6,0.8-0.8,0l-2.2-2.1c-0.8-0.2-0.8-0.6,0-0.8l2.2-2.2
		c0.2-0.8,0.6-0.8,0.8,0L168.5,66.6z"/>
	<path class="st12" d="M923.3,87.6c0.8,0.2,0.8,0.6,0,0.8l-2.1,2.1c-0.2,0.8-0.6,0.8-0.8,0l-2.2-2.1c-0.8-0.2-0.8-0.6,0-0.8l2.2-2.2
		c0.2-0.8,0.6-0.8,0.8,0L923.3,87.6z"/>
	<path class="st12" d="M995.5,75.6c0.8,0.2,0.8,0.6,0,0.8l-2.1,2.1c-0.2,0.8-0.6,0.8-0.8,0l-2.2-2.1c-0.8-0.2-0.8-0.6,0-0.8l2.2-2.2
		c0.2-0.8,0.6-0.8,0.8,0L995.5,75.6z"/>
	<path class="st12" d="M305.3,37.7c0.8,0.2,0.8,0.6,0,0.8l-2.1,2.1c-0.2,0.8-0.6,0.8-0.8,0l-2.2-2.1c-0.8-0.2-0.8-0.6,0-0.8l2.2-2.2
		c0.2-0.8,0.6-0.8,0.8,0L305.3,37.7z"/>
	<path class="st12" d="M162.5,21.6c0.8,0.2,0.8,0.6,0,0.8l-2.1,2.1c-0.2,0.8-0.6,0.8-0.8,0l-2.2-2.1c-0.8-0.2-0.8-0.6,0-0.8l2.2-2.2
		c0.2-0.8,0.6-0.8,0.8,0L162.5,21.6z"/>
	<path class="st12" d="M123.5,88.6c0.8,0.2,0.8,0.6,0,0.8l-2.1,2.1c-0.2,0.8-0.6,0.8-0.8,0l-2.2-2.1c-0.8-0.2-0.8-0.6,0-0.8l2.2-2.2
		c0.2-0.8,0.6-0.8,0.8,0L123.5,88.6z"/>
	<path class="st12" d="M80.8,62.4c0.8,0.2,0.8,0.6,0,0.8l-2.1,2.1c-0.2,0.8-0.6,0.8-0.8,0l-2.2-2.1c-0.8-0.2-0.8-0.6,0-0.8l2.2-2.2
		c0.2-0.8,0.6-0.8,0.8,0L80.8,62.4z"/>
	<path class="st12" d="M830.6,88.8c-0.8-0.4-1-0.2-0.6,0.6v3.1c-0.4,0.8-0.2,1,0.6,0.6h3.1c0.8,0.4,1,0.2,0.6-0.6l0-3.1
		c0.4-0.8,0.2-1-0.6-0.6L830.6,88.8z"/>
	<rect x="996.3" y="126.4" class="st15" width="2.2" height="4.7"/>
	<rect x="979.9" y="139.6" class="st15" width="2.2" height="4.7"/>
	<rect x="988.7" y="139.6" class="st15" width="2.2" height="4.7"/>
	<rect x="979.9" y="126.4" class="st15" width="2.2" height="4.7"/>
	<path class="st7" d="M878.2,120.5c0,3.6,2.9,6.6,6.6,6.6h27.4c3.6,0,6.6-2.9,6.6-6.6l0,0c0-3.6-2.9-6.6-6.6-6.6h-27.4
		C881.1,113.9,878.2,116.9,878.2,120.5L878.2,120.5z"/>
	<rect x="961.7" y="148.9" class="st16" width="55.3" height="17.1"/>
	<rect x="966.3" y="152.4" class="st15" width="4.8" height="4.7"/>
	<rect x="977.2" y="152.4" class="st15" width="4.8" height="4.7"/>
	<rect x="988.4" y="152.4" class="st15" width="4.8" height="4.7"/>
	<rect x="998.7" y="152.4" class="st15" width="4.8" height="4.7"/>
	<rect x="1008.5" y="152.4" class="st15" width="4.8" height="4.7"/>
	<rect x="874.2" y="147.9" class="st15" width="17.1" height="18.4"/>
	<rect x="878.9" y="151.4" class="st16" width="4.8" height="4.7"/>
	<rect x="878.9" y="160.2" class="st16" width="4.8" height="4.7"/>
	<path class="st12" d="M79.2,106.4c0.4,0,0.7-0.3,0.7-0.7s-0.3-0.7-0.7-0.7h-3.4v-2.7h3.4c0.4,0,0.7-0.3,0.7-0.7
		c0-0.4-0.3-0.7-0.7-0.7h-3.4v-3.3c0.7-0.3,1.2-1.1,1.2-1.9c0-1.2-0.9-2.1-2.1-2.1s-2.1,0.9-2.1,2.1c0,0.9,0.5,1.6,1.2,1.9v3.3h-3.3
		c-0.4,0-0.7,0.3-0.7,0.7c0,0.4,0.3,0.7,0.7,0.7h3.3v2.7h-3.3c-0.4,0-0.7,0.3-0.7,0.7s0.3,0.7,0.7,0.7h3.3v1.7
		c0,12.3-3.9,20.7-3.9,20.7V139h9.6v-10.1c0,0-3.8-8.1-3.9-20.1v-2.3H79.2z"/>
	<rect x="370.8" y="134.4" class="st14" width="32" height="31.7"/>
	<polygon class="st14" points="259.2,166.2 289,166.2 289,124 223.8,124 223.6,166.2 257.7,166.3 	"/>
	<g>
		<rect x="234.2" y="129.3" class="st15" width="3.4" height="37"/>
		<rect x="228.4" y="129.3" class="st15" width="3.4" height="37"/>
		<rect x="240.1" y="129.3" class="st15" width="3.4" height="37"/>
		<rect x="245.9" y="129.3" class="st15" width="3.4" height="37"/>
		<rect x="251.8" y="129.3" class="st15" width="3.4" height="37"/>
		<rect x="257.6" y="129.3" class="st15" width="3.4" height="37"/>
		<polygon class="st15" points="266.9,166.3 263.5,166.1 263.5,129.3 266.9,129.3 		"/>
		<rect x="269.4" y="129.3" class="st15" width="3.4" height="24.9"/>
		<rect x="275.2" y="129.3" class="st15" width="3.4" height="24.9"/>
		<rect x="281.1" y="129.3" class="st15" width="3.4" height="24.9"/>
	</g>
	<rect x="301.5" y="126.9" class="st14" width="66.8" height="39.3"/>
	<rect x="132.6" y="126.2" class="st7" width="62.1" height="40.2"/>
	<rect x="345" y="147.5" class="st15" width="32.8" height="19"/>
	<rect x="291.9" y="119.4" class="st16" width="6.2" height="24.9"/>
	<g>
		<rect x="379.8" y="139.2" class="st15" width="23" height="3.5"/>
		<rect x="379.8" y="145.7" class="st15" width="23" height="3.5"/>
		<rect x="379.8" y="152.3" class="st15" width="23" height="3.5"/>
		<rect x="379.8" y="158.8" class="st15" width="23" height="3.5"/>
	</g>
	<path class="st7" d="M160.5,124.8c0,3.6-2.9,6.6-6.6,6.6h-27.4c-3.6,0-6.6-2.9-6.6-6.6l0,0c0-3.6,2.9-6.6,6.6-6.6h27.4
		C157.6,118.3,160.5,121.2,160.5,124.8L160.5,124.8z"/>
	<g>
		<polygon class="st16" points="192.3,118.6 238.4,138 238.3,166.7 192.3,166.7 		"/>
		<rect x="202.6" y="151.9" class="st14" width="3.5" height="3.8"/>
		<rect x="208.5" y="144" class="st14" width="3.5" height="3.8"/>
		<rect x="202.8" y="137.3" class="st14" width="3.5" height="3.8"/>
		<rect x="197.8" y="131.8" class="st14" width="3.5" height="3.8"/>
		<rect x="221.1" y="151.9" class="st14" width="3.5" height="3.8"/>
		<rect x="230.3" y="144" class="st14" width="3.5" height="3.8"/>
	</g>
	<g>
		<rect x="150" y="137.3" class="st15" width="37.8" height="3.5"/>
		<rect x="150" y="143.8" class="st15" width="37.8" height="3.5"/>
		<rect x="150" y="150.3" class="st15" width="37.8" height="3.5"/>
		<rect x="150" y="156.8" class="st15" width="37.8" height="3.5"/>
	</g>
	<rect x="402" y="126.3" class="st12" width="54.5" height="39.8"/>
	<g>
		<rect x="406.8" y="143" class="st15" width="37.8" height="3.5"/>
		<rect x="406.8" y="149.5" class="st15" width="37.8" height="3.5"/>
		<rect x="406.8" y="156" class="st15" width="37.8" height="3.5"/>
		<rect x="406.8" y="162.5" class="st15" width="37.8" height="3.5"/>
	</g>
	<path class="st17" d="M467.4,136.3c0.5,0.1,0.5,0.4,0,0.5l-1.4,1.4c-0.1,0.5-0.4,0.5-0.5,0l-1.4-1.4c-0.5-0.1-0.5-0.4,0-0.5
		l1.4-1.4c0.1-0.5,0.4-0.5,0.5,0L467.4,136.3z"/>
	<rect x="339.5" y="130.1" class="st15" width="2.2" height="4.7"/>
	<rect x="355.9" y="141.3" class="st15" width="2.2" height="4.7"/>
	<rect x="347.1" y="141.3" class="st15" width="2.2" height="4.7"/>
	<rect x="331.2" y="141.3" class="st15" width="2.2" height="4.7"/>
	<rect x="322.5" y="141.3" class="st15" width="2.2" height="4.7"/>
	<rect x="331.2" y="152.1" class="st15" width="2.2" height="4.7"/>
	<rect x="322.5" y="152.1" class="st15" width="2.2" height="4.7"/>
	<rect x="331.2" y="162.4" class="st15" width="2.2" height="3.6"/>
	<rect x="322.5" y="162.4" class="st15" width="2.2" height="3.6"/>
	<rect x="331.2" y="130.1" class="st15" width="2.2" height="4.7"/>
	<rect x="322.5" y="130.1" class="st15" width="2.2" height="4.7"/>
	<rect x="367.6" y="149.7" class="st16" width="4.8" height="4.7"/>
	<rect x="367.6" y="158.4" class="st16" width="4.8" height="4.7"/>
	<rect x="356.7" y="149.7" class="st16" width="4.8" height="4.7"/>
	<rect x="356.7" y="158.4" class="st16" width="4.8" height="4.7"/>
	<rect x="355.9" y="130.1" class="st15" width="2.2" height="4.7"/>
	<rect x="197.7" y="162.4" class="st15" width="42.9" height="4.2"/>
	<rect x="263.5" y="136" class="st15" width="52.7" height="30.5"/>
	<rect x="270.9" y="142.1" class="st7" width="31.5" height="3.5"/>
	<rect x="270.9" y="148.6" class="st7" width="34.8" height="3.5"/>
	<rect x="270.9" y="155.1" class="st7" width="34.8" height="3.5"/>
	<rect x="270.9" y="161.3" class="st7" width="34.8" height="3.5"/>
	<rect x="58.1" y="129.4" class="st19" width="26.5" height="36.5"/>
	<polygon class="st14" points="467.3,166.5 450.2,166.5 450.2,122.3 487.6,122.3 487.6,166.2 468,166.2 	"/>
	<g>
		<rect x="455.4" y="162.8" class="st7" width="25" height="3.4"/>
		<rect x="455.4" y="156.9" class="st7" width="25" height="3.4"/>
		<polygon class="st7" points="455.6,151.1 456,154.5 480.3,154.5 480.3,151.1 		"/>
		<polygon class="st7" points="455.4,145.2 456.3,148.6 480.3,148.6 480.3,145.2 		"/>
		<rect x="464.7" y="139.4" class="st7" width="15.7" height="3.4"/>
		<rect x="464.7" y="133.5" class="st7" width="15.7" height="3.4"/>
		<rect x="464.7" y="127.6" class="st7" width="15.7" height="3.4"/>
	</g>
	<rect x="0.7" y="124.5" class="st12" width="50.7" height="41.7"/>
	<rect x="7.8" y="134.1" class="st19" width="9.4" height="31.8"/>
	<g>
		<rect x="61.5" y="135.6" class="st7" width="23" height="3.5"/>
		<rect x="61.5" y="142.1" class="st7" width="23" height="3.5"/>
		<rect x="61.5" y="148.6" class="st7" width="23" height="3.5"/>
		<rect x="61.5" y="155.1" class="st7" width="23" height="3.5"/>
		<rect x="61.5" y="161.7" class="st7" width="23" height="3.5"/>
	</g>
	<g>
		<polygon class="st16" points="539.9,121.9 493.7,139.7 493.8,165.9 539.9,165.9 		"/>
		<rect x="526" y="155.2" class="st14" width="3.5" height="3.8"/>
		<rect x="520.1" y="147.3" class="st14" width="3.5" height="3.8"/>
		<rect x="525.8" y="140.6" class="st14" width="3.5" height="3.8"/>
		<rect x="530.8" y="135.1" class="st14" width="3.5" height="3.8"/>
		<rect x="507.5" y="155.2" class="st14" width="3.5" height="3.8"/>
		<rect x="498.3" y="147.3" class="st14" width="3.5" height="3.8"/>
	</g>
	<rect x="83.8" y="125.9" class="st12" width="54.5" height="40.7"/>
	<g>
		<rect x="88.6" y="142" class="st15" width="37.8" height="3.5"/>
		<rect x="88.6" y="148.5" class="st15" width="37.8" height="3.5"/>
		<rect x="88.6" y="154.9" class="st15" width="37.8" height="3.5"/>
		<rect x="88.6" y="161.4" class="st15" width="37.8" height="3.5"/>
	</g>
	<rect x="22.6" y="129" class="st15" width="2.2" height="4.7"/>
	<rect x="38.9" y="142.2" class="st15" width="2.2" height="4.7"/>
	<rect x="30.2" y="142.2" class="st15" width="2.2" height="4.7"/>
	<rect x="38.9" y="129" class="st15" width="2.2" height="4.7"/>
	<path class="st7" d="M142.9,123.2c0,3.6-2.9,6.6-6.6,6.6h-27.4c-3.6,0-6.6-2.9-6.6-6.6l0,0c0-3.6,2.9-6.6,6.6-6.6h27.4
		C140,116.6,142.9,119.5,142.9,123.2L142.9,123.2z"/>
	<rect x="4.1" y="151.6" class="st16" width="55.3" height="15"/>
	<rect x="50" y="155" class="st15" width="4.8" height="4.7"/>
	<rect x="39.1" y="155" class="st15" width="4.8" height="4.7"/>
	<rect x="27.9" y="155" class="st15" width="4.8" height="4.7"/>
	<rect x="17.6" y="155" class="st15" width="4.8" height="4.7"/>
	<rect x="7.8" y="155" class="st15" width="4.8" height="4.7"/>
	<rect x="129.7" y="150.5" class="st15" width="17.1" height="15.4"/>
	<rect x="137.5" y="154.1" class="st16" width="4.8" height="4.7"/>
	<path class="st12" d="M883.3,44.6c-0.4,0.1-0.4,0.3,0,0.4l1,1c0.1,0.4,0.3,0.4,0.4,0l1-1c0.4-0.1,0.4-0.3,0-0.4l-1-1
		c-0.1-0.4-0.3-0.4-0.4,0L883.3,44.6z"/>
	<path class="st12" d="M150.4,104.2c-0.4,0.1-0.4,0.3,0,0.4l1,1c0.1,0.4,0.3,0.4,0.4,0l1-1c0.4-0.1,0.4-0.3,0-0.4l-1-1
		c-0.1-0.4-0.3-0.4-0.4,0L150.4,104.2z"/>
	<path class="st12" d="M229,94.2c-0.4,0.1-0.4,0.3,0,0.4l1,1c0.1,0.4,0.3,0.4,0.4,0l1-1c0.4-0.1,0.4-0.3,0-0.4l-1-1
		c-0.1-0.4-0.3-0.4-0.4,0L229,94.2z"/>
	<path class="st17" d="M1000.2,64.4c-0.8,0.2-0.8,0.6,0,0.8l2.1,2.1c0.2,0.8,0.6,0.8,0.8,0l2.1-2.1c0.8-0.2,0.8-0.6,0-0.8l-2.1-2.2
		c-0.2-0.8-0.6-0.8-0.8,0L1000.2,64.4z"/>
	<path class="st17" d="M931.7,70.7c-0.8,0.2-0.8,0.6,0,0.8l2.2,2.1c0.2,0.8,0.6,0.8,0.8,0l2.1-2.1c0.8-0.2,0.8-0.6,0-0.8l-2.2-2.1
		c-0.2-0.8-0.6-0.8-0.8,0L931.7,70.7z"/>
	<path class="st12" d="M941,22.9c-0.6,0.2-0.6,0.5,0,0.7l1.7,1.7c0.2,0.6,0.5,0.6,0.7,0l1.7-1.7c0.6-0.2,0.6-0.5,0-0.7l-1.7-1.7
		c-0.2-0.6-0.5-0.6-0.7,0L941,22.9z"/>
</g>
</svg>
